retro8.sfdir
StartChar: exclam
Encoding: 33 33 4
Width: 384
VWidth: 2048
GlyphClass: 2
Flags: W
LayerCount: 2
Fore
SplineSet
0 0 m 1,0,-1
 0 128 l 1,1,-1
 256 128 l 1,2,-1
 256 0 l 1,3,-1
 0 0 l 1,0,-1
0 256 m 1,4,-1
 0 768 l 1,5,-1
 256 768 l 1,6,-1
 256 256 l 1,7,-1
 0 256 l 1,4,-1
EndSplineSet
EndChar
StartChar: quotedbl
Encoding: 34 34 5
Width: 384
GlyphClass: 2
Flags: W
LayerCount: 2
Fore
SplineSet
0 256 m 1,0,-1
 0 448 l 1,1,-1
 128 448 l 1,2,-1
 128 256 l 1,3,-1
 0 256 l 1,0,-1
192 256 m 1,4,-1
 192 448 l 1,5,-1
 320 448 l 1,6,-1
 320 256 l 1,7,-1
 192 256 l 1,4,-1
EndSplineSet
EndChar
StartChar: dollar
Encoding: 36 36 7
Width: 384
GlyphClass: 2
Flags: W
LayerCount: 2
Fore
SplineSet
256 64 m 1,0,-1
 256 128 l 1,1,-1
 320 128 l 1,2,-1
 320 64 l 1,3,-1
 256 64 l 1,0,-1
0 192 m 1,4,-1
 0 256 l 1,5,-1
 64 256 l 1,6,-1
 64 192 l 1,7,-1
 0 192 l 1,4,-1
128 -64 m 1,8,-1
 128 0 l 1,9,-1
 0 0 l 1,10,-1
 0 64 l 1,11,-1
 128 64 l 1,12,-1
 128 128 l 1,13,-1
 64 128 l 1,14,-1
 64 192 l 1,15,-1
 128 192 l 1,16,-1
 128 256 l 1,17,-1
 64 256 l 1,18,-1
 64 320 l 1,19,-1
 128 320 l 1,20,-1
 128 384 l 1,21,-1
 192 384 l 1,22,-1
 192 320 l 1,23,-1
 256 320 l 1,24,-1
 256 256 l 1,25,-1
 192 256 l 1,26,-1
 192 192 l 1,27,-1
 256 192 l 1,28,-1
 256 128 l 1,29,-1
 192 128 l 1,30,-1
 192 64 l 1,31,-1
 256 64 l 1,32,-1
 256 0 l 1,33,-1
 192 0 l 1,34,-1
 192 -64 l 1,35,-1
 128 -64 l 1,8,-1
EndSplineSet
EndChar
StartChar: percent
Encoding: 37 37 8
Width: 896
VWidth: 2048
GlyphClass: 2
Flags: W
LayerCount: 2
Fore
SplineSet
512 -128 m 1,0,-1
 512 0 l 1,1,-1
 640 0 l 1,2,-1
 640 -128 l 1,3,-1
 512 -128 l 1,0,-1
384 0 m 1,4,-1
 384 128 l 1,5,-1
 512 128 l 1,6,-1
 512 0 l 1,7,-1
 384 0 l 1,4,-1
640 0 m 1,8,-1
 640 128 l 1,9,-1
 768 128 l 1,10,-1
 768 0 l 1,11,-1
 640 0 l 1,8,-1
512 128 m 1,12,-1
 512 256 l 1,13,-1
 640 256 l 1,14,-1
 640 128 l 1,15,-1
 512 128 l 1,12,-1
128 384 m 1,16,-1
 128 512 l 1,17,-1
 256 512 l 1,18,-1
 256 384 l 1,19,-1
 128 384 l 1,16,-1
0 512 m 1,20,-1
 0 640 l 1,21,-1
 128 640 l 1,22,-1
 128 512 l 1,23,-1
 0 512 l 1,20,-1
256 512 m 1,24,-1
 256 640 l 1,25,-1
 384 640 l 1,26,-1
 384 512 l 1,27,-1
 256 512 l 1,24,-1
128 640 m 1,28,-1
 128 768 l 1,29,-1
 256 768 l 1,30,-1
 256 640 l 1,31,-1
 128 640 l 1,28,-1
0 0 m 1,32,-1
 0 128 l 1,33,-1
 128 128 l 1,34,-1
 128 256 l 1,35,-1
 256 256 l 1,36,-1
 256 384 l 1,37,-1
 384 384 l 1,38,-1
 384 512 l 1,39,-1
 512 512 l 1,40,-1
 512 640 l 1,41,-1
 640 640 l 1,42,-1
 640 768 l 1,43,-1
 768 768 l 1,44,-1
 768 512 l 1,45,-1
 640 512 l 1,46,-1
 640 384 l 1,47,-1
 512 384 l 1,48,-1
 512 256 l 1,49,-1
 384 256 l 1,50,-1
 384 128 l 1,51,-1
 256 128 l 1,52,-1
 256 0 l 1,53,-1
 0 0 l 1,32,-1
EndSplineSet
EndChar
StartChar: ampersand
Encoding: 38 38 9
Width: 448
GlyphClass: 2
Flags: W
LayerCount: 2
Fore
SplineSet
64 0 m 1,0,-1
 64 64 l 1,1,-1
 192 64 l 1,2,-1
 192 0 l 1,3,-1
 64 0 l 1,0,-1
0 64 m 1,4,-1
 0 192 l 1,5,-1
 64 192 l 1,6,-1
 64 64 l 1,7,-1
 0 64 l 1,4,-1
320 128 m 1,8,-1
 320 192 l 1,9,-1
 384 192 l 1,10,-1
 384 128 l 1,11,-1
 320 128 l 1,8,-1
192 256 m 1,12,-1
 192 320 l 1,13,-1
 256 320 l 1,14,-1
 256 256 l 1,15,-1
 192 256 l 1,12,-1
256 0 m 1,16,-1
 256 64 l 1,17,-1
 192 64 l 1,18,-1
 192 128 l 1,19,-1
 128 128 l 1,20,-1
 128 192 l 1,21,-1
 64 192 l 1,22,-1
 64 256 l 1,23,-1
 0 256 l 1,24,-1
 0 320 l 1,25,-1
 64 320 l 1,26,-1
 64 384 l 1,27,-1
 192 384 l 1,28,-1
 192 320 l 1,29,-1
 128 320 l 1,30,-1
 128 256 l 1,31,-1
 192 256 l 1,32,-1
 192 192 l 1,33,-1
 256 192 l 1,34,-1
 256 128 l 1,35,-1
 320 128 l 1,36,-1
 320 64 l 1,37,-1
 384 64 l 1,38,-1
 384 0 l 1,39,-1
 256 0 l 1,16,-1
EndSplineSet
EndChar
StartChar: quotesingle
Encoding: 39 39 10
Width: 192
GlyphClass: 2
Flags: W
LayerCount: 2
Fore
SplineSet
0 256 m 1,0,-1
 0 448 l 1,1,-1
 128 448 l 1,2,-1
 128 256 l 1,3,-1
 0 256 l 1,0,-1
EndSplineSet
EndChar
StartChar: parenleft
Encoding: 40 40 11
Width: 192
GlyphClass: 2
Flags: W
LayerCount: 2
Fore
SplineSet
64 -64 m 1,0,-1
 64 0 l 1,1,-1
 128 0 l 1,2,-1
 128 -64 l 1,3,-1
 64 -64 l 1,0,-1
0 0 m 1,4,-1
 0 384 l 1,5,-1
 64 384 l 1,6,-1
 64 0 l 1,7,-1
 0 0 l 1,4,-1
64 384 m 1,8,-1
 64 448 l 1,9,-1
 128 448 l 1,10,-1
 128 384 l 1,11,-1
 64 384 l 1,8,-1
EndSplineSet
EndChar
StartChar: parenright
Encoding: 41 41 12
Width: 384
VWidth: 2048
GlyphClass: 2
Flags: W
LayerCount: 2
Fore
SplineSet
0 -128 m 1,0,-1
 0 0 l 1,1,-1
 128 0 l 1,2,-1
 128 -128 l 1,3,-1
 0 -128 l 1,0,-1
128 0 m 1,4,-1
 128 768 l 1,5,-1
 256 768 l 1,6,-1
 256 0 l 1,7,-1
 128 0 l 1,4,-1
0 768 m 1,8,-1
 0 896 l 1,9,-1
 128 896 l 1,10,-1
 128 768 l 1,11,-1
 0 768 l 1,8,-1
EndSplineSet
EndChar
StartChar: plus
Encoding: 43 43 14
Width: 896
VWidth: 2048
GlyphClass: 2
Flags: W
LayerCount: 2
Fore
SplineSet
256 0 m 1,0,-1
 256 256 l 1,1,-1
 0 256 l 1,2,-1
 0 384 l 1,3,-1
 256 384 l 1,4,-1
 256 640 l 1,5,-1
 512 640 l 1,6,-1
 512 384 l 1,7,-1
 768 384 l 1,8,-1
 768 256 l 1,9,-1
 512 256 l 1,10,-1
 512 0 l 1,11,-1
 256 0 l 1,0,-1
EndSplineSet
EndChar
StartChar: comma
Encoding: 44 44 15
Width: 512
VWidth: 2048
GlyphClass: 2
Flags: W
LayerCount: 2
Fore
SplineSet
0 -128 m 1,0,-1
 0 0 l 1,1,-1
 128 0 l 1,2,-1
 128 256 l 1,3,-1
 384 256 l 1,4,-1
 384 0 l 1,5,-1
 256 0 l 1,6,-1
 256 -128 l 1,7,-1
 0 -128 l 1,0,-1
EndSplineSet
EndChar
StartChar: hyphen
Encoding: 45 45 16
Width: 768
VWidth: 2048
GlyphClass: 2
Flags: W
LayerCount: 2
Fore
SplineSet
0 256 m 1,0,-1
 0 384 l 1,1,-1
 640 384 l 1,2,-1
 640 256 l 1,3,-1
 0 256 l 1,0,-1
EndSplineSet
EndChar
StartChar: period
Encoding: 46 46 17
Width: 192
GlyphClass: 2
Flags: W
LayerCount: 2
Fore
SplineSet
0 0 m 1,0,-1
 0 128 l 1,1,-1
 128 128 l 1,2,-1
 128 0 l 1,3,-1
 0 0 l 1,0,-1
EndSplineSet
EndChar
StartChar: zero
Encoding: 48 48 19
Width: 448
GlyphClass: 2
Flags: W
LayerCount: 2
Fore
SplineSet
256 64 m 1,0,-1
 256 320 l 1,1,-1
 128 320 l 1,2,-1
 128 64 l 1,3,-1
 256 64 l 1,0,-1
64 0 m 1,4,-1
 64 64 l 1,5,-1
 0 64 l 1,6,-1
 0 320 l 1,7,-1
 64 320 l 1,8,-1
 64 384 l 1,9,-1
 320 384 l 1,10,-1
 320 320 l 1,11,-1
 384 320 l 1,12,-1
 384 64 l 1,13,-1
 320 64 l 1,14,-1
 320 0 l 1,15,-1
 64 0 l 1,4,-1
EndSplineSet
EndChar
StartChar: one
Encoding: 49 49 20
Width: 448
GlyphClass: 2
Flags: W
LayerCount: 2
Fore
SplineSet
128 0 m 1,0,-1
 128 256 l 1,1,-1
 64 256 l 1,2,-1
 64 320 l 1,3,-1
 128 320 l 1,4,-1
 128 384 l 1,5,-1
 256 384 l 1,6,-1
 256 0 l 1,7,-1
 128 0 l 1,0,-1
EndSplineSet
EndChar
StartChar: two
Encoding: 50 50 21
Width: 448
GlyphClass: 2
Flags: W
LayerCount: 2
Fore
SplineSet
0 0 m 1,0,-1
 0 192 l 1,1,-1
 64 192 l 1,2,-1
 64 256 l 1,3,-1
 256 256 l 1,4,-1
 256 320 l 1,5,-1
 0 320 l 1,6,-1
 0 384 l 1,7,-1
 320 384 l 1,8,-1
 320 320 l 1,9,-1
 384 320 l 1,10,-1
 384 256 l 1,11,-1
 320 256 l 1,12,-1
 320 192 l 1,13,-1
 128 192 l 1,14,-1
 128 64 l 1,15,-1
 384 64 l 1,16,-1
 384 0 l 1,17,-1
 0 0 l 1,0,-1
EndSplineSet
EndChar
StartChar: four
Encoding: 52 52 23
Width: 896
VWidth: 2048
GlyphClass: 2
Flags: W
LayerCount: 2
Fore
SplineSet
128 512 m 1,0,-1
 128 640 l 1,1,-1
 256 640 l 1,2,-1
 256 512 l 1,3,-1
 128 512 l 1,0,-1
384 0 m 1,4,-1
 384 128 l 1,5,-1
 0 128 l 1,6,-1
 0 512 l 1,7,-1
 128 512 l 1,8,-1
 128 256 l 1,9,-1
 384 256 l 1,10,-1
 384 640 l 1,11,-1
 256 640 l 1,12,-1
 256 768 l 1,13,-1
 640 768 l 1,14,-1
 640 256 l 1,15,-1
 768 256 l 1,16,-1
 768 128 l 1,17,-1
 640 128 l 1,18,-1
 640 0 l 1,19,-1
 384 0 l 1,4,-1
EndSplineSet
EndChar
StartChar: five
Encoding: 53 53 24
Width: 448
GlyphClass: 2
Flags: W
LayerCount: 2
Fore
SplineSet
0 0 m 1,0,-1
 0 64 l 1,1,-1
 256 64 l 1,2,-1
 256 192 l 1,3,-1
 0 192 l 1,4,-1
 0 384 l 1,5,-1
 384 384 l 1,6,-1
 384 320 l 1,7,-1
 128 320 l 1,8,-1
 128 256 l 1,9,-1
 320 256 l 1,10,-1
 320 192 l 1,11,-1
 384 192 l 1,12,-1
 384 64 l 1,13,-1
 320 64 l 1,14,-1
 320 0 l 1,15,-1
 0 0 l 1,0,-1
EndSplineSet
EndChar
StartChar: six
Encoding: 54 54 25
Width: 448
GlyphClass: 2
Flags: W
LayerCount: 2
Fore
SplineSet
256 64 m 1,0,-1
 256 192 l 1,1,-1
 128 192 l 1,2,-1
 128 64 l 1,3,-1
 256 64 l 1,0,-1
64 0 m 1,4,-1
 64 64 l 1,5,-1
 0 64 l 1,6,-1
 0 320 l 1,7,-1
 64 320 l 1,8,-1
 64 384 l 1,9,-1
 320 384 l 1,10,-1
 320 320 l 1,11,-1
 128 320 l 1,12,-1
 128 256 l 1,13,-1
 320 256 l 1,14,-1
 320 192 l 1,15,-1
 384 192 l 1,16,-1
 384 64 l 1,17,-1
 320 64 l 1,18,-1
 320 0 l 1,19,-1
 64 0 l 1,4,-1
EndSplineSet
EndChar
StartChar: seven
Encoding: 55 55 26
Width: 448
GlyphClass: 2
Flags: W
LayerCount: 2
Fore
SplineSet
128 0 m 1,0,-1
 128 128 l 1,1,-1
 192 128 l 1,2,-1
 192 192 l 1,3,-1
 256 192 l 1,4,-1
 256 320 l 1,5,-1
 128 320 l 1,6,-1
 128 256 l 1,7,-1
 0 256 l 1,8,-1
 0 384 l 1,9,-1
 384 384 l 1,10,-1
 384 192 l 1,11,-1
 320 192 l 1,12,-1
 320 128 l 1,13,-1
 256 128 l 1,14,-1
 256 0 l 1,15,-1
 128 0 l 1,0,-1
EndSplineSet
EndChar
StartChar: colon
Encoding: 58 58 29
Width: 192
GlyphClass: 2
Flags: W
LayerCount: 2
Fore
SplineSet
0 0 m 1,0,-1
 0 128 l 1,1,-1
 128 128 l 1,2,-1
 128 0 l 1,3,-1
 0 0 l 1,0,-1
0 256 m 1,4,-1
 0 384 l 1,5,-1
 128 384 l 1,6,-1
 128 256 l 1,7,-1
 0 256 l 1,4,-1
EndSplineSet
EndChar
StartChar: semicolon
Encoding: 59 59 30
Width: 256
GlyphClass: 2
Flags: W
LayerCount: 2
Fore
SplineSet
0 -64 m 1,0,-1
 0 0 l 1,1,-1
 64 0 l 1,2,-1
 64 128 l 1,3,-1
 192 128 l 1,4,-1
 192 0 l 1,5,-1
 128 0 l 1,6,-1
 128 -64 l 1,7,-1
 0 -64 l 1,0,-1
64 256 m 1,8,-1
 64 384 l 1,9,-1
 192 384 l 1,10,-1
 192 256 l 1,11,-1
 64 256 l 1,8,-1
EndSplineSet
EndChar
StartChar: equal
Encoding: 61 61 32
Width: 448
GlyphClass: 2
Flags: W
LayerCount: 2
Fore
SplineSet
0 64 m 1,0,-1
 0 128 l 1,1,-1
 384 128 l 1,2,-1
 384 64 l 1,3,-1
 0 64 l 1,0,-1
0 256 m 1,4,-1
 0 320 l 1,5,-1
 384 320 l 1,6,-1
 384 256 l 1,7,-1
 0 256 l 1,4,-1
EndSplineSet
EndChar
StartChar: greater
Encoding: 62 62 33
Width: 640
VWidth: 2048
GlyphClass: 2
Flags: W
LayerCount: 2
Fore
SplineSet
0 0 m 1,0,-1
 0 128 l 1,1,-1
 128 128 l 1,2,-1
 128 256 l 1,3,-1
 256 256 l 1,4,-1
 256 384 l 1,5,-1
 128 384 l 1,6,-1
 128 512 l 1,7,-1
 0 512 l 1,8,-1
 0 640 l 1,9,-1
 256 640 l 1,10,-1
 256 512 l 1,11,-1
 384 512 l 1,12,-1
 384 384 l 1,13,-1
 512 384 l 1,14,-1
 512 256 l 1,15,-1
 384 256 l 1,16,-1
 384 128 l 1,17,-1
 256 128 l 1,18,-1
 256 0 l 1,19,-1
 0 0 l 1,0,-1
EndSplineSet
EndChar
StartChar: question
Encoding: 63 63 34
Width: 896
VWidth: 2048
GlyphClass: 2
Flags: W
LayerCount: 2
Fore
SplineSet
256 0 m 1,0,-1
 256 128 l 1,1,-1
 512 128 l 1,2,-1
 512 0 l 1,3,-1
 256 0 l 1,0,-1
256 256 m 1,4,-1
 256 384 l 1,5,-1
 512 384 l 1,6,-1
 512 640 l 1,7,-1
 256 640 l 1,8,-1
 256 512 l 1,9,-1
 0 512 l 1,10,-1
 0 640 l 1,11,-1
 128 640 l 1,12,-1
 128 768 l 1,13,-1
 640 768 l 1,14,-1
 640 640 l 1,15,-1
 768 640 l 1,16,-1
 768 384 l 1,17,-1
 640 384 l 1,18,-1
 640 256 l 1,19,-1
 256 256 l 1,4,-1
EndSplineSet
EndChar
StartChar: at
Encoding: 64 64 35
Width: 1024
VWidth: 2048
GlyphClass: 2
Flags: W
LayerCount: 2
Fore
SplineSet
256 -128 m 1,0,-1
 256 0 l 1,1,-1
 768 0 l 1,2,-1
 768 -128 l 1,3,-1
 256 -128 l 1,0,-1
128 0 m 1,4,-1
 128 128 l 1,5,-1
 256 128 l 1,6,-1
 256 0 l 1,7,-1
 128 0 l 1,4,-1
0 128 m 1,8,-1
 0 512 l 1,9,-1
 128 512 l 1,10,-1
 128 128 l 1,11,-1
 0 128 l 1,8,-1
256 128 m 1,12,-1
 256 384 l 1,13,-1
 384 384 l 1,14,-1
 384 256 l 1,15,-1
 512 256 l 1,16,-1
 512 384 l 1,17,-1
 384 384 l 1,18,-1
 384 512 l 1,19,-1
 640 512 l 1,20,-1
 640 256 l 1,21,-1
 768 256 l 1,22,-1
 768 512 l 1,23,-1
 896 512 l 1,24,-1
 896 128 l 1,25,-1
 256 128 l 1,12,-1
128 512 m 1,26,-1
 128 640 l 1,27,-1
 256 640 l 1,28,-1
 256 512 l 1,29,-1
 128 512 l 1,26,-1
640 512 m 1,30,-1
 640 640 l 1,31,-1
 768 640 l 1,32,-1
 768 512 l 1,33,-1
 640 512 l 1,30,-1
256 640 m 1,34,-1
 256 768 l 1,35,-1
 640 768 l 1,36,-1
 640 640 l 1,37,-1
 256 640 l 1,34,-1
EndSplineSet
EndChar
StartChar: A
Encoding: 65 65 36
Width: 448
GlyphClass: 2
Flags: W
LayerCount: 2
Fore
SplineSet
256 192 m 1,0,-1
 256 320 l 1,1,-1
 128 320 l 1,2,-1
 128 192 l 1,3,-1
 256 192 l 1,0,-1
0 0 m 1,4,-1
 0 320 l 1,5,-1
 64 320 l 1,6,-1
 64 384 l 1,7,-1
 320 384 l 1,8,-1
 320 320 l 1,9,-1
 384 320 l 1,10,-1
 384 0 l 1,11,-1
 256 0 l 1,12,-1
 256 128 l 1,13,-1
 128 128 l 1,14,-1
 128 0 l 1,15,-1
 0 0 l 1,4,-1
EndSplineSet
EndChar
StartChar: C
Encoding: 67 67 38
Width: 896
VWidth: 2048
GlyphClass: 2
Flags: W
LayerCount: 2
Fore
SplineSet
128 0 m 1,0,-1
 128 128 l 1,1,-1
 0 128 l 1,2,-1
 0 640 l 1,3,-1
 128 640 l 1,4,-1
 128 768 l 1,5,-1
 640 768 l 1,6,-1
 640 640 l 1,7,-1
 768 640 l 1,8,-1
 768 512 l 1,9,-1
 512 512 l 1,10,-1
 512 640 l 1,11,-1
 256 640 l 1,12,-1
 256 128 l 1,13,-1
 512 128 l 1,14,-1
 512 256 l 1,15,-1
 768 256 l 1,16,-1
 768 128 l 1,17,-1
 640 128 l 1,18,-1
 640 0 l 1,19,-1
 128 0 l 1,0,-1
EndSplineSet
EndChar
StartChar: D
Encoding: 68 68 39
Width: 896
VWidth: 2048
GlyphClass: 2
Flags: W
LayerCount: 2
Fore
SplineSet
512 128 m 1,0,-1
 512 512 l 1,1,-1
 384 512 l 1,2,-1
 384 640 l 1,3,-1
 256 640 l 1,4,-1
 256 128 l 1,5,-1
 512 128 l 1,0,-1
0 0 m 1,6,-1
 0 768 l 1,7,-1
 512 768 l 1,8,-1
 512 640 l 1,9,-1
 640 640 l 1,10,-1
 640 512 l 1,11,-1
 768 512 l 1,12,-1
 768 128 l 1,13,-1
 640 128 l 1,14,-1
 640 0 l 1,15,-1
 0 0 l 1,6,-1
EndSplineSet
EndChar
StartChar: F
Encoding: 70 70 41
Width: 896
VWidth: 2048
GlyphClass: 2
Flags: W
LayerCount: 2
Fore
SplineSet
0 0 m 1,0,-1
 0 768 l 1,1,-1
 768 768 l 1,2,-1
 768 640 l 1,3,-1
 256 640 l 1,4,-1
 256 512 l 1,5,-1
 640 512 l 1,6,-1
 640 384 l 1,7,-1
 256 384 l 1,8,-1
 256 0 l 1,9,-1
 0 0 l 1,0,-1
EndSplineSet
EndChar
StartChar: G
Encoding: 71 71 42
Width: 448
GlyphClass: 2
Flags: W
LayerCount: 2
Fore
SplineSet
64 0 m 1,0,-1
 64 64 l 1,1,-1
 0 64 l 1,2,-1
 0 320 l 1,3,-1
 64 320 l 1,4,-1
 64 384 l 1,5,-1
 384 384 l 1,6,-1
 384 320 l 1,7,-1
 128 320 l 1,8,-1
 128 64 l 1,9,-1
 256 64 l 1,10,-1
 256 192 l 1,11,-1
 192 192 l 1,12,-1
 192 256 l 1,13,-1
 384 256 l 1,14,-1
 384 0 l 1,15,-1
 64 0 l 1,0,-1
EndSplineSet
EndChar
StartChar: H
Encoding: 72 72 43
Width: 896
VWidth: 2048
GlyphClass: 2
Flags: W
LayerCount: 2
Fore
SplineSet
0 0 m 1,0,-1
 0 768 l 1,1,-1
 256 768 l 1,2,-1
 256 512 l 1,3,-1
 512 512 l 1,4,-1
 512 768 l 1,5,-1
 768 768 l 1,6,-1
 768 0 l 1,7,-1
 512 0 l 1,8,-1
 512 384 l 1,9,-1
 256 384 l 1,10,-1
 256 0 l 1,11,-1
 0 0 l 1,0,-1
EndSplineSet
EndChar
StartChar: I
Encoding: 73 73 44
Width: 640
VWidth: 2048
GlyphClass: 2
Flags: W
LayerCount: 2
Fore
SplineSet
0 0 m 1,0,-1
 0 128 l 1,1,-1
 128 128 l 1,2,-1
 128 640 l 1,3,-1
 0 640 l 1,4,-1
 0 768 l 1,5,-1
 512 768 l 1,6,-1
 512 640 l 1,7,-1
 384 640 l 1,8,-1
 384 128 l 1,9,-1
 512 128 l 1,10,-1
 512 0 l 1,11,-1
 0 0 l 1,0,-1
EndSplineSet
EndChar
StartChar: K
Encoding: 75 75 46
Width: 448
GlyphClass: 2
Flags: W
LayerCount: 2
Fore
SplineSet
0 0 m 1,0,-1
 0 384 l 1,1,-1
 128 384 l 1,2,-1
 128 256 l 1,3,-1
 192 256 l 1,4,-1
 192 320 l 1,5,-1
 256 320 l 1,6,-1
 256 384 l 1,7,-1
 384 384 l 1,8,-1
 384 320 l 1,9,-1
 320 320 l 1,10,-1
 320 256 l 1,11,-1
 256 256 l 1,12,-1
 256 192 l 1,13,-1
 320 192 l 1,14,-1
 320 128 l 1,15,-1
 384 128 l 1,16,-1
 384 0 l 1,17,-1
 256 0 l 1,18,-1
 256 128 l 1,19,-1
 192 128 l 1,20,-1
 192 192 l 1,21,-1
 128 192 l 1,22,-1
 128 0 l 1,23,-1
 0 0 l 1,0,-1
EndSplineSet
EndChar
StartChar: M
Encoding: 77 77 48
Width: 512
GlyphClass: 2
Flags: W
LayerCount: 2
Fore
SplineSet
0 0 m 1,0,-1
 0 384 l 1,1,-1
 128 384 l 1,2,-1
 128 320 l 1,3,-1
 192 320 l 1,4,-1
 192 256 l 1,5,-1
 256 256 l 1,6,-1
 256 320 l 1,7,-1
 320 320 l 1,8,-1
 320 384 l 1,9,-1
 448 384 l 1,10,-1
 448 0 l 1,11,-1
 320 0 l 1,12,-1
 320 192 l 1,13,-1
 256 192 l 1,14,-1
 256 128 l 1,15,-1
 192 128 l 1,16,-1
 192 192 l 1,17,-1
 128 192 l 1,18,-1
 128 0 l 1,19,-1
 0 0 l 1,0,-1
EndSplineSet
EndChar
StartChar: N
Encoding: 78 78 49
Width: 896
VWidth: 2048
GlyphClass: 2
Flags: W
LayerCount: 2
Fore
SplineSet
0 0 m 1,0,-1
 0 768 l 1,1,-1
 256 768 l 1,2,-1
 256 640 l 1,3,-1
 384 640 l 1,4,-1
 384 512 l 1,5,-1
 512 512 l 1,6,-1
 512 768 l 1,7,-1
 768 768 l 1,8,-1
 768 0 l 1,9,-1
 512 0 l 1,10,-1
 512 128 l 1,11,-1
 384 128 l 1,12,-1
 384 256 l 1,13,-1
 256 256 l 1,14,-1
 256 0 l 1,15,-1
 0 0 l 1,0,-1
EndSplineSet
EndChar
StartChar: O
Encoding: 79 79 50
Width: 896
VWidth: 2048
GlyphClass: 2
Flags: W
LayerCount: 2
Fore
SplineSet
512 128 m 1,0,-1
 512 640 l 1,1,-1
 256 640 l 1,2,-1
 256 128 l 1,3,-1
 512 128 l 1,0,-1
128 0 m 1,4,-1
 128 128 l 1,5,-1
 0 128 l 1,6,-1
 0 640 l 1,7,-1
 128 640 l 1,8,-1
 128 768 l 1,9,-1
 640 768 l 1,10,-1
 640 640 l 1,11,-1
 768 640 l 1,12,-1
 768 128 l 1,13,-1
 640 128 l 1,14,-1
 640 0 l 1,15,-1
 128 0 l 1,4,-1
EndSplineSet
EndChar
StartChar: P
Encoding: 80 80 51
Width: 896
VWidth: 2048
GlyphClass: 2
Flags: W
LayerCount: 2
Fore
SplineSet
512 384 m 1,0,-1
 512 640 l 1,1,-1
 256 640 l 1,2,-1
 256 384 l 1,3,-1
 512 384 l 1,0,-1
0 0 m 1,4,-1
 0 768 l 1,5,-1
 640 768 l 1,6,-1
 640 640 l 1,7,-1
 768 640 l 1,8,-1
 768 384 l 1,9,-1
 640 384 l 1,10,-1
 640 256 l 1,11,-1
 256 256 l 1,12,-1
 256 0 l 1,13,-1
 0 0 l 1,4,-1
EndSplineSet
EndChar
StartChar: Q
Encoding: 81 81 52
Width: 896
VWidth: 2048
GlyphClass: 2
Flags: W
LayerCount: 2
Fore
SplineSet
384 128 m 1,0,-1
 384 256 l 1,1,-1
 512 256 l 1,2,-1
 512 640 l 1,3,-1
 256 640 l 1,4,-1
 256 128 l 1,5,-1
 384 128 l 1,0,-1
512 -128 m 1,6,-1
 512 0 l 1,7,-1
 128 0 l 1,8,-1
 128 128 l 1,9,-1
 0 128 l 1,10,-1
 0 640 l 1,11,-1
 128 640 l 1,12,-1
 128 768 l 1,13,-1
 640 768 l 1,14,-1
 640 640 l 1,15,-1
 768 640 l 1,16,-1
 768 128 l 1,17,-1
 640 128 l 1,18,-1
 640 0 l 1,19,-1
 768 0 l 1,20,-1
 768 -128 l 1,21,-1
 512 -128 l 1,6,-1
EndSplineSet
EndChar
StartChar: S
Encoding: 83 83 54
Width: 896
VWidth: 2048
GlyphClass: 2
Flags: W
LayerCount: 2
Fore
SplineSet
128 0 m 1,0,-1
 128 128 l 1,1,-1
 0 128 l 1,2,-1
 0 256 l 1,3,-1
 256 256 l 1,4,-1
 256 128 l 1,5,-1
 512 128 l 1,6,-1
 512 384 l 1,7,-1
 128 384 l 1,8,-1
 128 512 l 1,9,-1
 0 512 l 1,10,-1
 0 640 l 1,11,-1
 128 640 l 1,12,-1
 128 768 l 1,13,-1
 640 768 l 1,14,-1
 640 640 l 1,15,-1
 256 640 l 1,16,-1
 256 512 l 1,17,-1
 640 512 l 1,18,-1
 640 384 l 1,19,-1
 768 384 l 1,20,-1
 768 128 l 1,21,-1
 640 128 l 1,22,-1
 640 0 l 1,23,-1
 128 0 l 1,0,-1
EndSplineSet
EndChar
StartChar: T
Encoding: 84 84 55
Width: 448
GlyphClass: 2
Flags: W
LayerCount: 2
Fore
SplineSet
128 0 m 1,0,-1
 128 320 l 1,1,-1
 0 320 l 1,2,-1
 0 384 l 1,3,-1
 384 384 l 1,4,-1
 384 320 l 1,5,-1
 256 320 l 1,6,-1
 256 0 l 1,7,-1
 128 0 l 1,0,-1
EndSplineSet
EndChar
StartChar: U
Encoding: 85 85 56
Width: 896
VWidth: 2048
GlyphClass: 2
Flags: W
LayerCount: 2
Fore
SplineSet
128 0 m 1,0,-1
 128 128 l 1,1,-1
 0 128 l 1,2,-1
 0 768 l 1,3,-1
 256 768 l 1,4,-1
 256 128 l 1,5,-1
 512 128 l 1,6,-1
 512 768 l 1,7,-1
 768 768 l 1,8,-1
 768 128 l 1,9,-1
 640 128 l 1,10,-1
 640 0 l 1,11,-1
 128 0 l 1,0,-1
EndSplineSet
EndChar
StartChar: V
Encoding: 86 86 57
Width: 448
GlyphClass: 2
Flags: W
LayerCount: 2
Fore
SplineSet
128 0 m 1,0,-1
 128 64 l 1,1,-1
 64 64 l 1,2,-1
 64 192 l 1,3,-1
 0 192 l 1,4,-1
 0 384 l 1,5,-1
 128 384 l 1,6,-1
 128 128 l 1,7,-1
 192 128 l 1,8,-1
 192 192 l 1,9,-1
 256 192 l 1,10,-1
 256 384 l 1,11,-1
 384 384 l 1,12,-1
 384 192 l 1,13,-1
 320 192 l 1,14,-1
 320 64 l 1,15,-1
 256 64 l 1,16,-1
 256 0 l 1,17,-1
 128 0 l 1,0,-1
EndSplineSet
EndChar
StartChar: X
Encoding: 88 88 59
Width: 896
VWidth: 2048
GlyphClass: 2
Flags: W
LayerCount: 2
Fore
SplineSet
0 0 m 1,0,-1
 0 128 l 1,1,-1
 128 128 l 1,2,-1
 128 256 l 1,3,-1
 256 256 l 1,4,-1
 256 384 l 1,5,-1
 128 384 l 1,6,-1
 128 512 l 1,7,-1
 0 512 l 1,8,-1
 0 768 l 1,9,-1
 256 768 l 1,10,-1
 256 512 l 1,11,-1
 384 512 l 1,12,-1
 384 640 l 1,13,-1
 512 640 l 1,14,-1
 512 768 l 1,15,-1
 768 768 l 1,16,-1
 768 640 l 1,17,-1
 640 640 l 1,18,-1
 640 512 l 1,19,-1
 512 512 l 1,20,-1
 512 384 l 1,21,-1
 640 384 l 1,22,-1
 640 256 l 1,23,-1
 768 256 l 1,24,-1
 768 0 l 1,25,-1
 512 0 l 1,26,-1
 512 256 l 1,27,-1
 384 256 l 1,28,-1
 384 128 l 1,29,-1
 256 128 l 1,30,-1
 256 0 l 1,31,-1
 0 0 l 1,0,-1
EndSplineSet
EndChar
StartChar: Y
Encoding: 89 89 60
Width: 896
VWidth: 2048
GlyphClass: 2
Flags: W
LayerCount: 2
Fore
SplineSet
256 0 m 1,0,-1
 256 256 l 1,1,-1
 128 256 l 1,2,-1
 128 384 l 1,3,-1
 0 384 l 1,4,-1
 0 768 l 1,5,-1
 256 768 l 1,6,-1
 256 384 l 1,7,-1
 512 384 l 1,8,-1
 512 768 l 1,9,-1
 768 768 l 1,10,-1
 768 384 l 1,11,-1
 640 384 l 1,12,-1
 640 256 l 1,13,-1
 512 256 l 1,14,-1
 512 0 l 1,15,-1
 256 0 l 1,0,-1
EndSplineSet
EndChar
StartChar: bracketleft
Encoding: 91 91 62
Width: 512
VWidth: 2048
GlyphClass: 2
Flags: W
LayerCount: 2
Fore
SplineSet
0 -128 m 1,0,-1
 0 896 l 1,1,-1
 384 896 l 1,2,-1
 384 768 l 1,3,-1
 128 768 l 1,4,-1
 128 0 l 1,5,-1
 384 0 l 1,6,-1
 384 -128 l 1,7,-1
 0 -128 l 1,0,-1
EndSplineSet
EndChar
StartChar: backslash
Encoding: 92 92 63
Width: 896
VWidth: 2048
GlyphClass: 2
Flags: W
LayerCount: 2
Fore
SplineSet
512 0 m 1,0,-1
 512 128 l 1,1,-1
 384 128 l 1,2,-1
 384 256 l 1,3,-1
 256 256 l 1,4,-1
 256 384 l 1,5,-1
 128 384 l 1,6,-1
 128 512 l 1,7,-1
 0 512 l 1,8,-1
 0 768 l 1,9,-1
 128 768 l 1,10,-1
 128 640 l 1,11,-1
 256 640 l 1,12,-1
 256 512 l 1,13,-1
 384 512 l 1,14,-1
 384 384 l 1,15,-1
 512 384 l 1,16,-1
 512 256 l 1,17,-1
 640 256 l 1,18,-1
 640 128 l 1,19,-1
 768 128 l 1,20,-1
 768 0 l 1,21,-1
 512 0 l 1,0,-1
EndSplineSet
EndChar
StartChar: asciicircum
Encoding: 94 94 65
Width: 384
GlyphClass: 2
Flags: W
LayerCount: 2
Fore
SplineSet
0 256 m 1,0,-1
 0 320 l 1,1,-1
 64 320 l 1,2,-1
 64 256 l 1,3,-1
 0 256 l 1,0,-1
256 256 m 1,4,-1
 256 320 l 1,5,-1
 320 320 l 1,6,-1
 320 256 l 1,7,-1
 256 256 l 1,4,-1
64 320 m 1,8,-1
 64 384 l 1,9,-1
 128 384 l 1,10,-1
 128 320 l 1,11,-1
 64 320 l 1,8,-1
192 320 m 1,12,-1
 192 384 l 1,13,-1
 256 384 l 1,14,-1
 256 320 l 1,15,-1
 192 320 l 1,12,-1
128 384 m 1,16,-1
 128 448 l 1,17,-1
 192 448 l 1,18,-1
 192 384 l 1,19,-1
 128 384 l 1,16,-1
EndSplineSet
EndChar
StartChar: underscore
Encoding: 95 95 66
Width: 640
VWidth: 2048
GlyphClass: 2
Flags: W
LayerCount: 2
Fore
SplineSet
0 -128 m 1,0,-1
 0 0 l 1,1,-1
 640 0 l 1,2,-1
 640 -128 l 1,3,-1
 0 -128 l 1,0,-1
EndSplineSet
EndChar
StartChar: a
Encoding: 97 97 68
Width: 384
GlyphClass: 2
Flags: W
LayerCount: 2
Fore
SplineSet
192 64 m 1,0,-1
 192 128 l 1,1,-1
 128 128 l 1,2,-1
 128 64 l 1,3,-1
 192 64 l 1,0,-1
64 0 m 1,4,-1
 64 64 l 1,5,-1
 0 64 l 1,6,-1
 0 128 l 1,7,-1
 64 128 l 1,8,-1
 64 192 l 1,9,-1
 192 192 l 1,10,-1
 192 256 l 1,11,-1
 64 256 l 1,12,-1
 64 320 l 1,13,-1
 256 320 l 1,14,-1
 256 256 l 1,15,-1
 320 256 l 1,16,-1
 320 0 l 1,17,-1
 64 0 l 1,4,-1
EndSplineSet
EndChar
StartChar: c
Encoding: 99 99 70
Width: 384
GlyphClass: 2
Flags: W
LayerCount: 2
Fore
SplineSet
64 0 m 1,0,-1
 64 64 l 1,1,-1
 0 64 l 1,2,-1
 0 256 l 1,3,-1
 64 256 l 1,4,-1
 64 320 l 1,5,-1
 256 320 l 1,6,-1
 256 256 l 1,7,-1
 320 256 l 1,8,-1
 320 192 l 1,9,-1
 192 192 l 1,10,-1
 192 256 l 1,11,-1
 128 256 l 1,12,-1
 128 64 l 1,13,-1
 192 64 l 1,14,-1
 192 128 l 1,15,-1
 320 128 l 1,16,-1
 320 64 l 1,17,-1
 256 64 l 1,18,-1
 256 0 l 1,19,-1
 64 0 l 1,0,-1
EndSplineSet
EndChar
StartChar: f
Encoding: 102 102 73
Width: 384
GlyphClass: 2
Flags: W
LayerCount: 2
Fore
SplineSet
64 0 m 1,0,-1
 64 192 l 1,1,-1
 0 192 l 1,2,-1
 0 256 l 1,3,-1
 64 256 l 1,4,-1
 64 384 l 1,5,-1
 128 384 l 1,6,-1
 128 448 l 1,7,-1
 320 448 l 1,8,-1
 320 384 l 1,9,-1
 192 384 l 1,10,-1
 192 256 l 1,11,-1
 320 256 l 1,12,-1
 320 192 l 1,13,-1
 192 192 l 1,14,-1
 192 0 l 1,15,-1
 64 0 l 1,0,-1
EndSplineSet
EndChar
StartChar: g
Encoding: 103 103 74
Width: 768
VWidth: 2048
GlyphClass: 2
Flags: W
LayerCount: 2
Fore
SplineSet
384 128 m 1,0,-1
 384 512 l 1,1,-1
 256 512 l 1,2,-1
 256 128 l 1,3,-1
 384 128 l 1,0,-1
0 -256 m 1,4,-1
 0 -128 l 1,5,-1
 384 -128 l 1,6,-1
 384 0 l 1,7,-1
 128 0 l 1,8,-1
 128 128 l 1,9,-1
 0 128 l 1,10,-1
 0 512 l 1,11,-1
 128 512 l 1,12,-1
 128 640 l 1,13,-1
 640 640 l 1,14,-1
 640 -128 l 1,15,-1
 512 -128 l 1,16,-1
 512 -256 l 1,17,-1
 0 -256 l 1,4,-1
EndSplineSet
EndChar
StartChar: h
Encoding: 104 104 75
Width: 384
GlyphClass: 2
Flags: W
LayerCount: 2
Fore
SplineSet
0 0 m 1,0,-1
 0 448 l 1,1,-1
 128 448 l 1,2,-1
 128 320 l 1,3,-1
 256 320 l 1,4,-1
 256 256 l 1,5,-1
 320 256 l 1,6,-1
 320 0 l 1,7,-1
 192 0 l 1,8,-1
 192 256 l 1,9,-1
 128 256 l 1,10,-1
 128 0 l 1,11,-1
 0 0 l 1,0,-1
EndSplineSet
EndChar
StartChar: j
Encoding: 106 106 77
Width: 640
VWidth: 2048
GlyphClass: 2
Flags: W
LayerCount: 2
Fore
SplineSet
0 -256 m 1,0,-1
 0 -128 l 1,1,-1
 256 -128 l 1,2,-1
 256 640 l 1,3,-1
 512 640 l 1,4,-1
 512 -128 l 1,5,-1
 384 -128 l 1,6,-1
 384 -256 l 1,7,-1
 0 -256 l 1,0,-1
256 768 m 1,8,-1
 256 896 l 1,9,-1
 512 896 l 1,10,-1
 512 768 l 1,11,-1
 256 768 l 1,8,-1
EndSplineSet
EndChar
StartChar: k
Encoding: 107 107 78
Width: 768
VWidth: 2048
GlyphClass: 2
Flags: W
LayerCount: 2
Fore
SplineSet
0 0 m 1,0,-1
 0 896 l 1,1,-1
 256 896 l 1,2,-1
 256 512 l 1,3,-1
 384 512 l 1,4,-1
 384 640 l 1,5,-1
 640 640 l 1,6,-1
 640 512 l 1,7,-1
 512 512 l 1,8,-1
 512 384 l 1,9,-1
 384 384 l 1,10,-1
 384 256 l 1,11,-1
 512 256 l 1,12,-1
 512 128 l 1,13,-1
 640 128 l 1,14,-1
 640 0 l 1,15,-1
 384 0 l 1,16,-1
 384 128 l 1,17,-1
 256 128 l 1,18,-1
 256 0 l 1,19,-1
 0 0 l 1,0,-1
EndSplineSet
EndChar
StartChar: l
Encoding: 108 108 79
Width: 384
VWidth: 2048
GlyphClass: 2
Flags: W
LayerCount: 2
Fore
SplineSet
0 0 m 1,0,-1
 0 896 l 1,1,-1
 256 896 l 1,2,-1
 256 0 l 1,3,-1
 0 0 l 1,0,-1
EndSplineSet
EndChar
StartChar: m
Encoding: 109 109 80
Width: 576
GlyphClass: 2
Flags: W
LayerCount: 2
Fore
SplineSet
0 0 m 1,0,-1
 0 320 l 1,1,-1
 448 320 l 1,2,-1
 448 256 l 1,3,-1
 512 256 l 1,4,-1
 512 0 l 1,5,-1
 384 0 l 1,6,-1
 384 256 l 1,7,-1
 320 256 l 1,8,-1
 320 0 l 1,9,-1
 192 0 l 1,10,-1
 192 256 l 1,11,-1
 128 256 l 1,12,-1
 128 0 l 1,13,-1
 0 0 l 1,0,-1
EndSplineSet
EndChar
StartChar: n
Encoding: 110 110 81
Width: 384
GlyphClass: 2
Flags: W
LayerCount: 2
Fore
SplineSet
0 0 m 1,0,-1
 0 320 l 1,1,-1
 256 320 l 1,2,-1
 256 256 l 1,3,-1
 320 256 l 1,4,-1
 320 0 l 1,5,-1
 192 0 l 1,6,-1
 192 256 l 1,7,-1
 128 256 l 1,8,-1
 128 0 l 1,9,-1
 0 0 l 1,0,-1
EndSplineSet
EndChar
StartChar: p
Encoding: 112 112 83
Width: 768
VWidth: 2048
GlyphClass: 2
Flags: W
LayerCount: 2
Fore
SplineSet
384 128 m 1,0,-1
 384 512 l 1,1,-1
 256 512 l 1,2,-1
 256 128 l 1,3,-1
 384 128 l 1,0,-1
0 -256 m 1,4,-1
 0 640 l 1,5,-1
 512 640 l 1,6,-1
 512 512 l 1,7,-1
 640 512 l 1,8,-1
 640 128 l 1,9,-1
 512 128 l 1,10,-1
 512 0 l 1,11,-1
 256 0 l 1,12,-1
 256 -256 l 1,13,-1
 0 -256 l 1,4,-1
EndSplineSet
EndChar
StartChar: r
Encoding: 114 114 85
Width: 384
GlyphClass: 2
Flags: W
LayerCount: 2
Fore
SplineSet
0 0 m 1,0,-1
 0 320 l 1,1,-1
 128 320 l 1,2,-1
 128 256 l 1,3,-1
 192 256 l 1,4,-1
 192 192 l 1,5,-1
 128 192 l 1,6,-1
 128 0 l 1,7,-1
 0 0 l 1,0,-1
192 256 m 1,8,-1
 192 320 l 1,9,-1
 320 320 l 1,10,-1
 320 256 l 1,11,-1
 192 256 l 1,8,-1
EndSplineSet
EndChar
StartChar: s
Encoding: 115 115 86
Width: 384
GlyphClass: 2
Flags: W
LayerCount: 2
Fore
SplineSet
0 0 m 1,0,-1
 0 64 l 1,1,-1
 192 64 l 1,2,-1
 192 128 l 1,3,-1
 64 128 l 1,4,-1
 64 192 l 1,5,-1
 0 192 l 1,6,-1
 0 256 l 1,7,-1
 64 256 l 1,8,-1
 64 320 l 1,9,-1
 320 320 l 1,10,-1
 320 256 l 1,11,-1
 128 256 l 1,12,-1
 128 192 l 1,13,-1
 256 192 l 1,14,-1
 256 128 l 1,15,-1
 320 128 l 1,16,-1
 320 64 l 1,17,-1
 256 64 l 1,18,-1
 256 0 l 1,19,-1
 0 0 l 1,0,-1
EndSplineSet
EndChar
StartChar: t
Encoding: 116 116 87
Width: 768
VWidth: 2048
GlyphClass: 2
Flags: W
LayerCount: 2
Fore
SplineSet
256 0 m 1,0,-1
 256 128 l 1,1,-1
 128 128 l 1,2,-1
 128 512 l 1,3,-1
 0 512 l 1,4,-1
 0 640 l 1,5,-1
 128 640 l 1,6,-1
 128 896 l 1,7,-1
 384 896 l 1,8,-1
 384 640 l 1,9,-1
 640 640 l 1,10,-1
 640 512 l 1,11,-1
 384 512 l 1,12,-1
 384 128 l 1,13,-1
 640 128 l 1,14,-1
 640 0 l 1,15,-1
 256 0 l 1,0,-1
EndSplineSet
EndChar
StartChar: u
Encoding: 117 117 88
Width: 768
VWidth: 2048
GlyphClass: 2
Flags: W
LayerCount: 2
Fore
SplineSet
128 0 m 1,0,-1
 128 128 l 1,1,-1
 0 128 l 1,2,-1
 0 640 l 1,3,-1
 256 640 l 1,4,-1
 256 128 l 1,5,-1
 384 128 l 1,6,-1
 384 640 l 1,7,-1
 640 640 l 1,8,-1
 640 128 l 1,9,-1
 512 128 l 1,10,-1
 512 0 l 1,11,-1
 128 0 l 1,0,-1
EndSplineSet
EndChar
StartChar: v
Encoding: 118 118 89
Width: 384
GlyphClass: 2
Flags: W
LayerCount: 2
Fore
SplineSet
128 0 m 1,0,-1
 128 64 l 1,1,-1
 64 64 l 1,2,-1
 64 128 l 1,3,-1
 0 128 l 1,4,-1
 0 320 l 1,5,-1
 128 320 l 1,6,-1
 128 128 l 1,7,-1
 192 128 l 1,8,-1
 192 320 l 1,9,-1
 320 320 l 1,10,-1
 320 128 l 1,11,-1
 256 128 l 1,12,-1
 256 64 l 1,13,-1
 192 64 l 1,14,-1
 192 0 l 1,15,-1
 128 0 l 1,0,-1
EndSplineSet
EndChar
StartChar: w
Encoding: 119 119 90
Width: 576
GlyphClass: 2
Flags: W
LayerCount: 2
Fore
SplineSet
64 0 m 1,0,-1
 64 64 l 1,1,-1
 0 64 l 1,2,-1
 0 320 l 1,3,-1
 128 320 l 1,4,-1
 128 64 l 1,5,-1
 192 64 l 1,6,-1
 192 320 l 1,7,-1
 320 320 l 1,8,-1
 320 64 l 1,9,-1
 384 64 l 1,10,-1
 384 320 l 1,11,-1
 512 320 l 1,12,-1
 512 0 l 1,13,-1
 64 0 l 1,0,-1
EndSplineSet
EndChar
StartChar: y
Encoding: 121 121 92
Width: 384
GlyphClass: 2
Flags: W
LayerCount: 2
Fore
SplineSet
0 -128 m 1,0,-1
 0 -64 l 1,1,-1
 192 -64 l 1,2,-1
 192 0 l 1,3,-1
 64 0 l 1,4,-1
 64 64 l 1,5,-1
 0 64 l 1,6,-1
 0 320 l 1,7,-1
 128 320 l 1,8,-1
 128 64 l 1,9,-1
 192 64 l 1,10,-1
 192 320 l 1,11,-1
 320 320 l 1,12,-1
 320 -64 l 1,13,-1
 256 -64 l 1,14,-1
 256 -128 l 1,15,-1
 0 -128 l 1,0,-1
EndSplineSet
EndChar
StartChar: z
Encoding: 122 122 93
Width: 768
VWidth: 2048
GlyphClass: 2
Flags: W
LayerCount: 2
Fore
SplineSet
0 0 m 1,0,-1
 0 128 l 1,1,-1
 128 128 l 1,2,-1
 128 256 l 1,3,-1
 256 256 l 1,4,-1
 256 384 l 1,5,-1
 384 384 l 1,6,-1
 384 512 l 1,7,-1
 0 512 l 1,8,-1
 0 640 l 1,9,-1
 640 640 l 1,10,-1
 640 384 l 1,11,-1
 512 384 l 1,12,-1
 512 256 l 1,13,-1
 384 256 l 1,14,-1
 384 128 l 1,15,-1
 640 128 l 1,16,-1
 640 0 l 1,17,-1
 0 0 l 1,0,-1
EndSplineSet
EndChar
StartChar: braceleft
Encoding: 123 123 94
Width: 256
GlyphClass: 2
Flags: W
LayerCount: 2
Fore
SplineSet
128 -64 m 1,0,-1
 128 0 l 1,1,-1
 192 0 l 1,2,-1
 192 -64 l 1,3,-1
 128 -64 l 1,0,-1
64 0 m 1,4,-1
 64 192 l 1,5,-1
 128 192 l 1,6,-1
 128 0 l 1,7,-1
 64 0 l 1,4,-1
0 192 m 1,8,-1
 0 256 l 1,9,-1
 64 256 l 1,10,-1
 64 192 l 1,11,-1
 0 192 l 1,8,-1
64 256 m 1,12,-1
 64 384 l 1,13,-1
 128 384 l 1,14,-1
 128 256 l 1,15,-1
 64 256 l 1,12,-1
128 384 m 1,16,-1
 128 448 l 1,17,-1
 192 448 l 1,18,-1
 192 384 l 1,19,-1
 128 384 l 1,16,-1
EndSplineSet
EndChar
StartChar: bar
Encoding: 124 124 95
Width: 256
VWidth: 2048
GlyphClass: 2
Flags: W
LayerCount: 2
Fore
SplineSet
0 -256 m 1,0,-1
 0 1024 l 1,1,-1
 128 1024 l 1,2,-1
 128 -256 l 1,3,-1
 0 -256 l 1,0,-1
EndSplineSet
EndChar
StartChar: braceright
Encoding: 125 125 96
Width: 256
GlyphClass: 2
Flags: W
LayerCount: 2
Fore
SplineSet
0 -64 m 1,0,-1
 0 0 l 1,1,-1
 64 0 l 1,2,-1
 64 -64 l 1,3,-1
 0 -64 l 1,0,-1
64 0 m 1,4,-1
 64 192 l 1,5,-1
 128 192 l 1,6,-1
 128 0 l 1,7,-1
 64 0 l 1,4,-1
128 192 m 1,8,-1
 128 256 l 1,9,-1
 192 256 l 1,10,-1
 192 192 l 1,11,-1
 128 192 l 1,8,-1
64 256 m 1,12,-1
 64 384 l 1,13,-1
 128 384 l 1,14,-1
 128 256 l 1,15,-1
 64 256 l 1,12,-1
0 384 m 1,16,-1
 0 448 l 1,17,-1
 64 448 l 1,18,-1
 64 384 l 1,19,-1
 0 384 l 1,16,-1
EndSplineSet
EndChar
StartChar: asciitilde
Encoding: 126 126 97
Width: 448
GlyphClass: 2
Flags: W
LayerCount: 2
Fore
SplineSet
0 128 m 1,0,-1
 0 192 l 1,1,-1
 64 192 l 1,2,-1
 64 128 l 1,3,-1
 0 128 l 1,0,-1
192 128 m 1,4,-1
 192 192 l 1,5,-1
 320 192 l 1,6,-1
 320 128 l 1,7,-1
 192 128 l 1,4,-1
64 192 m 1,8,-1
 64 256 l 1,9,-1
 192 256 l 1,10,-1
 192 192 l 1,11,-1
 64 192 l 1,8,-1
320 192 m 1,12,-1
 320 256 l 1,13,-1
 384 256 l 1,14,-1
 384 192 l 1,15,-1
 320 192 l 1,12,-1
EndSplineSet
EndChar
StartChar: exclamdown
Encoding: 161 161 99
Width: 192
GlyphClass: 2
Flags: W
LayerCount: 2
Fore
SplineSet
0 -128 m 1,0,-1
 0 128 l 1,1,-1
 128 128 l 1,2,-1
 128 -128 l 1,3,-1
 0 -128 l 1,0,-1
0 192 m 1,4,-1
 0 256 l 1,5,-1
 128 256 l 1,6,-1
 128 192 l 1,7,-1
 0 192 l 1,4,-1
EndSplineSet
EndChar
StartChar: cent
Encoding: 162 162 100
Width: 640
VWidth: 2048
GlyphClass: 2
Flags: W
LayerCount: 2
Fore
SplineSet
0 128 m 1,0,-1
 0 384 l 1,1,-1
 128 384 l 1,2,-1
 128 128 l 1,3,-1
 0 128 l 1,0,-1
256 -128 m 1,4,-1
 256 0 l 1,5,-1
 128 0 l 1,6,-1
 128 128 l 1,7,-1
 256 128 l 1,8,-1
 256 384 l 1,9,-1
 128 384 l 1,10,-1
 128 512 l 1,11,-1
 256 512 l 1,12,-1
 256 640 l 1,13,-1
 384 640 l 1,14,-1
 384 512 l 1,15,-1
 512 512 l 1,16,-1
 512 384 l 1,17,-1
 384 384 l 1,18,-1
 384 128 l 1,19,-1
 512 128 l 1,20,-1
 512 0 l 1,21,-1
 384 0 l 1,22,-1
 384 -128 l 1,23,-1
 256 -128 l 1,4,-1
EndSplineSet
EndChar
StartChar: sterling
Encoding: 163 163 101
Width: 448
GlyphClass: 2
Flags: W
LayerCount: 2
Fore
SplineSet
0 0 m 1,0,-1
 0 128 l 1,1,-1
 64 128 l 1,2,-1
 64 192 l 1,3,-1
 0 192 l 1,4,-1
 0 256 l 1,5,-1
 64 256 l 1,6,-1
 64 384 l 1,7,-1
 128 384 l 1,8,-1
 128 448 l 1,9,-1
 320 448 l 1,10,-1
 320 384 l 1,11,-1
 384 384 l 1,12,-1
 384 320 l 1,13,-1
 256 320 l 1,14,-1
 256 384 l 1,15,-1
 192 384 l 1,16,-1
 192 256 l 1,17,-1
 256 256 l 1,18,-1
 256 192 l 1,19,-1
 192 192 l 1,20,-1
 192 128 l 1,21,-1
 128 128 l 1,22,-1
 128 64 l 1,23,-1
 384 64 l 1,24,-1
 384 0 l 1,25,-1
 0 0 l 1,0,-1
EndSplineSet
EndChar
StartChar: currency
Encoding: 164 164 102
Width: 384
GlyphClass: 2
Flags: W
LayerCount: 2
Fore
SplineSet
0 0 m 1,0,-1
 0 64 l 1,1,-1
 64 64 l 1,2,-1
 64 0 l 1,3,-1
 0 0 l 1,0,-1
256 0 m 1,4,-1
 256 64 l 1,5,-1
 320 64 l 1,6,-1
 320 0 l 1,7,-1
 256 0 l 1,4,-1
192 128 m 1,8,-1
 192 256 l 1,9,-1
 128 256 l 1,10,-1
 128 128 l 1,11,-1
 192 128 l 1,8,-1
64 64 m 1,12,-1
 64 128 l 1,13,-1
 0 128 l 1,14,-1
 0 256 l 1,15,-1
 64 256 l 1,16,-1
 64 320 l 1,17,-1
 256 320 l 1,18,-1
 256 256 l 1,19,-1
 320 256 l 1,20,-1
 320 128 l 1,21,-1
 256 128 l 1,22,-1
 256 64 l 1,23,-1
 64 64 l 1,12,-1
0 320 m 1,24,-1
 0 384 l 1,25,-1
 64 384 l 1,26,-1
 64 320 l 1,27,-1
 0 320 l 1,24,-1
256 320 m 1,28,-1
 256 384 l 1,29,-1
 320 384 l 1,30,-1
 320 320 l 1,31,-1
 256 320 l 1,28,-1
EndSplineSet
EndChar
StartChar: yen
Encoding: 165 165 103
Width: 448
GlyphClass: 2
Flags: W
LayerCount: 2
Fore
SplineSet
128 -64 m 1,0,-1
 128 0 l 1,1,-1
 0 0 l 1,2,-1
 0 64 l 1,3,-1
 128 64 l 1,4,-1
 128 128 l 1,5,-1
 0 128 l 1,6,-1
 0 192 l 1,7,-1
 128 192 l 1,8,-1
 128 256 l 1,9,-1
 64 256 l 1,10,-1
 64 320 l 1,11,-1
 0 320 l 1,12,-1
 0 448 l 1,13,-1
 128 448 l 1,14,-1
 128 320 l 1,15,-1
 256 320 l 1,16,-1
 256 448 l 1,17,-1
 384 448 l 1,18,-1
 384 320 l 1,19,-1
 320 320 l 1,20,-1
 320 256 l 1,21,-1
 256 256 l 1,22,-1
 256 192 l 1,23,-1
 384 192 l 1,24,-1
 384 128 l 1,25,-1
 256 128 l 1,26,-1
 256 64 l 1,27,-1
 384 64 l 1,28,-1
 384 0 l 1,29,-1
 256 0 l 1,30,-1
 256 -64 l 1,31,-1
 128 -64 l 1,0,-1
EndSplineSet
EndChar
StartChar: brokenbar
Encoding: 166 166 104
Width: 128
GlyphClass: 2
Flags: W
LayerCount: 2
Fore
SplineSet
0 -128 m 1,0,-1
 0 128 l 1,1,-1
 64 128 l 1,2,-1
 64 -128 l 1,3,-1
 0 -128 l 1,0,-1
0 256 m 1,4,-1
 0 512 l 1,5,-1
 64 512 l 1,6,-1
 64 256 l 1,7,-1
 0 256 l 1,4,-1
EndSplineSet
EndChar
StartChar: section
Encoding: 167 167 105
Width: 448
GlyphClass: 2
Flags: W
LayerCount: 2
Fore
SplineSet
256 64 m 1,0,-1
 256 192 l 1,1,-1
 128 192 l 1,2,-1
 128 64 l 1,3,-1
 256 64 l 1,0,-1
64 -128 m 1,4,-1
 64 -64 l 1,5,-1
 256 -64 l 1,6,-1
 256 0 l 1,7,-1
 64 0 l 1,8,-1
 64 64 l 1,9,-1
 0 64 l 1,10,-1
 0 192 l 1,11,-1
 64 192 l 1,12,-1
 64 256 l 1,13,-1
 0 256 l 1,14,-1
 0 320 l 1,15,-1
 64 320 l 1,16,-1
 64 384 l 1,17,-1
 320 384 l 1,18,-1
 320 320 l 1,19,-1
 128 320 l 1,20,-1
 128 256 l 1,21,-1
 320 256 l 1,22,-1
 320 192 l 1,23,-1
 384 192 l 1,24,-1
 384 64 l 1,25,-1
 320 64 l 1,26,-1
 320 0 l 1,27,-1
 384 0 l 1,28,-1
 384 -64 l 1,29,-1
 320 -64 l 1,30,-1
 320 -128 l 1,31,-1
 64 -128 l 1,4,-1
EndSplineSet
EndChar
StartChar: dieresis
Encoding: 168 168 106
Width: 512
VWidth: 2048
GlyphClass: 2
Flags: W
LayerCount: 2
Fore
SplineSet
0 768 m 1,0,-1
 0 896 l 1,1,-1
 128 896 l 1,2,-1
 128 768 l 1,3,-1
 0 768 l 1,0,-1
256 768 m 1,4,-1
 256 896 l 1,5,-1
 384 896 l 1,6,-1
 384 768 l 1,7,-1
 256 768 l 1,4,-1
EndSplineSet
EndChar
StartChar: copyright
Encoding: 169 169 107
Width: 512
GlyphClass: 2
Flags: W
LayerCount: 2
Fore
SplineSet
128 -64 m 1,0,-1
 128 0 l 1,1,-1
 320 0 l 1,2,-1
 320 -64 l 1,3,-1
 128 -64 l 1,0,-1
64 0 m 1,4,-1
 64 64 l 1,5,-1
 128 64 l 1,6,-1
 128 0 l 1,7,-1
 64 0 l 1,4,-1
320 0 m 1,8,-1
 320 64 l 1,9,-1
 384 64 l 1,10,-1
 384 0 l 1,11,-1
 320 0 l 1,8,-1
192 64 m 1,12,-1
 192 128 l 1,13,-1
 320 128 l 1,14,-1
 320 64 l 1,15,-1
 192 64 l 1,12,-1
128 128 m 1,16,-1
 128 192 l 1,17,-1
 192 192 l 1,18,-1
 192 128 l 1,19,-1
 128 128 l 1,16,-1
0 64 m 1,20,-1
 0 256 l 1,21,-1
 64 256 l 1,22,-1
 64 64 l 1,23,-1
 0 64 l 1,20,-1
192 192 m 1,24,-1
 192 256 l 1,25,-1
 320 256 l 1,26,-1
 320 192 l 1,27,-1
 192 192 l 1,24,-1
384 64 m 1,28,-1
 384 256 l 1,29,-1
 448 256 l 1,30,-1
 448 64 l 1,31,-1
 384 64 l 1,28,-1
64 256 m 1,32,-1
 64 320 l 1,33,-1
 128 320 l 1,34,-1
 128 256 l 1,35,-1
 64 256 l 1,32,-1
320 256 m 1,36,-1
 320 320 l 1,37,-1
 384 320 l 1,38,-1
 384 256 l 1,39,-1
 320 256 l 1,36,-1
128 320 m 1,40,-1
 128 384 l 1,41,-1
 320 384 l 1,42,-1
 320 320 l 1,43,-1
 128 320 l 1,40,-1
EndSplineSet
EndChar
StartChar: guillemotleft
Encoding: 171 171 109
Width: 896
VWidth: 2048
GlyphClass: 2
Flags: W
LayerCount: 2
Fore
SplineSet
256 0 m 1,0,-1
 256 128 l 1,1,-1
 384 128 l 1,2,-1
 384 0 l 1,3,-1
 256 0 l 1,0,-1
640 0 m 1,4,-1
 640 128 l 1,5,-1
 768 128 l 1,6,-1
 768 0 l 1,7,-1
 640 0 l 1,4,-1
128 128 m 1,8,-1
 128 256 l 1,9,-1
 256 256 l 1,10,-1
 256 128 l 1,11,-1
 128 128 l 1,8,-1
512 128 m 1,12,-1
 512 256 l 1,13,-1
 640 256 l 1,14,-1
 640 128 l 1,15,-1
 512 128 l 1,12,-1
0 256 m 1,16,-1
 0 384 l 1,17,-1
 128 384 l 1,18,-1
 128 256 l 1,19,-1
 0 256 l 1,16,-1
384 256 m 1,20,-1
 384 384 l 1,21,-1
 512 384 l 1,22,-1
 512 256 l 1,23,-1
 384 256 l 1,20,-1
128 384 m 1,24,-1
 128 512 l 1,25,-1
 256 512 l 1,26,-1
 256 384 l 1,27,-1
 128 384 l 1,24,-1
512 384 m 1,28,-1
 512 512 l 1,29,-1
 640 512 l 1,30,-1
 640 384 l 1,31,-1
 512 384 l 1,28,-1
256 512 m 1,32,-1
 256 640 l 1,33,-1
 384 640 l 1,34,-1
 384 512 l 1,35,-1
 256 512 l 1,32,-1
640 512 m 1,36,-1
 640 640 l 1,37,-1
 768 640 l 1,38,-1
 768 512 l 1,39,-1
 640 512 l 1,36,-1
EndSplineSet
EndChar
StartChar: logicalnot
Encoding: 172 172 110
Width: 768
VWidth: 2048
GlyphClass: 2
Flags: W
LayerCount: 2
Fore
SplineSet
384 256 m 1,0,-1
 384 384 l 1,1,-1
 0 384 l 1,2,-1
 0 512 l 1,3,-1
 640 512 l 1,4,-1
 640 256 l 1,5,-1
 384 256 l 1,0,-1
EndSplineSet
EndChar
StartChar: registered
Encoding: 174 174 111
Width: 512
GlyphClass: 2
Flags: W
LayerCount: 2
Fore
SplineSet
128 -64 m 1,0,-1
 128 0 l 1,1,-1
 320 0 l 1,2,-1
 320 -64 l 1,3,-1
 128 -64 l 1,0,-1
64 0 m 1,4,-1
 64 64 l 1,5,-1
 128 64 l 1,6,-1
 128 0 l 1,7,-1
 64 0 l 1,4,-1
320 0 m 1,8,-1
 320 64 l 1,9,-1
 384 64 l 1,10,-1
 384 0 l 1,11,-1
 320 0 l 1,8,-1
256 64 m 1,12,-1
 256 128 l 1,13,-1
 320 128 l 1,14,-1
 320 64 l 1,15,-1
 256 64 l 1,12,-1
0 64 m 1,16,-1
 0 256 l 1,17,-1
 64 256 l 1,18,-1
 64 64 l 1,19,-1
 0 64 l 1,16,-1
128 64 m 1,20,-1
 128 256 l 1,21,-1
 320 256 l 1,22,-1
 320 192 l 1,23,-1
 256 192 l 1,24,-1
 256 128 l 1,25,-1
 192 128 l 1,26,-1
 192 64 l 1,27,-1
 128 64 l 1,20,-1
384 64 m 1,28,-1
 384 256 l 1,29,-1
 448 256 l 1,30,-1
 448 64 l 1,31,-1
 384 64 l 1,28,-1
64 256 m 1,32,-1
 64 320 l 1,33,-1
 128 320 l 1,34,-1
 128 256 l 1,35,-1
 64 256 l 1,32,-1
320 256 m 1,36,-1
 320 320 l 1,37,-1
 384 320 l 1,38,-1
 384 256 l 1,39,-1
 320 256 l 1,36,-1
128 320 m 1,40,-1
 128 384 l 1,41,-1
 320 384 l 1,42,-1
 320 320 l 1,43,-1
 128 320 l 1,40,-1
EndSplineSet
EndChar
StartChar: macron
Encoding: 175 175 112
Width: 640
VWidth: 2048
GlyphClass: 2
Flags: W
LayerCount: 2
Fore
SplineSet
0 768 m 1,0,-1
 0 896 l 1,1,-1
 512 896 l 1,2,-1
 512 768 l 1,3,-1
 0 768 l 1,0,-1
EndSplineSet
EndChar
StartChar: degree
Encoding: 176 176 113
Width: 320
GlyphClass: 2
Flags: W
LayerCount: 2
Fore
SplineSet
64 256 m 1,0,-1
 64 320 l 1,1,-1
 192 320 l 1,2,-1
 192 256 l 1,3,-1
 64 256 l 1,0,-1
0 320 m 1,4,-1
 0 384 l 1,5,-1
 64 384 l 1,6,-1
 64 320 l 1,7,-1
 0 320 l 1,4,-1
192 320 m 1,8,-1
 192 384 l 1,9,-1
 256 384 l 1,10,-1
 256 320 l 1,11,-1
 192 320 l 1,8,-1
64 384 m 1,12,-1
 64 448 l 1,13,-1
 192 448 l 1,14,-1
 192 384 l 1,15,-1
 64 384 l 1,12,-1
EndSplineSet
EndChar
StartChar: plusminus
Encoding: 177 177 114
Width: 448
GlyphClass: 2
Flags: W
LayerCount: 2
Fore
SplineSet
0 0 m 1,0,-1
 0 64 l 1,1,-1
 384 64 l 1,2,-1
 384 0 l 1,3,-1
 0 0 l 1,0,-1
128 128 m 1,4,-1
 128 256 l 1,5,-1
 0 256 l 1,6,-1
 0 320 l 1,7,-1
 128 320 l 1,8,-1
 128 448 l 1,9,-1
 256 448 l 1,10,-1
 256 320 l 1,11,-1
 384 320 l 1,12,-1
 384 256 l 1,13,-1
 256 256 l 1,14,-1
 256 128 l 1,15,-1
 128 128 l 1,4,-1
EndSplineSet
EndChar
StartChar: uni00B2
Encoding: 178 178 115
Width: 640
VWidth: 2048
GlyphClass: 2
Flags: W
LayerCount: 2
Fore
SplineSet
0 384 m 1,0,-1
 0 640 l 1,1,-1
 128 640 l 1,2,-1
 128 512 l 1,3,-1
 512 512 l 1,4,-1
 512 384 l 1,5,-1
 0 384 l 1,0,-1
128 640 m 1,6,-1
 128 768 l 1,7,-1
 384 768 l 1,8,-1
 384 640 l 1,9,-1
 128 640 l 1,6,-1
384 768 m 1,10,-1
 384 896 l 1,11,-1
 512 896 l 1,12,-1
 512 768 l 1,13,-1
 384 768 l 1,10,-1
0 896 m 1,14,-1
 0 1024 l 1,15,-1
 384 1024 l 1,16,-1
 384 896 l 1,17,-1
 0 896 l 1,14,-1
EndSplineSet
EndChar
StartChar: uni00B3
Encoding: 179 179 116
Width: 320
GlyphClass: 2
Flags: W
LayerCount: 2
Fore
SplineSet
0 192 m 1,0,-1
 0 256 l 1,1,-1
 192 256 l 1,2,-1
 192 192 l 1,3,-1
 0 192 l 1,0,-1
192 256 m 1,4,-1
 192 320 l 1,5,-1
 256 320 l 1,6,-1
 256 256 l 1,7,-1
 192 256 l 1,4,-1
64 320 m 1,8,-1
 64 384 l 1,9,-1
 192 384 l 1,10,-1
 192 320 l 1,11,-1
 64 320 l 1,8,-1
192 384 m 1,12,-1
 192 448 l 1,13,-1
 256 448 l 1,14,-1
 256 384 l 1,15,-1
 192 384 l 1,12,-1
0 448 m 1,16,-1
 0 512 l 1,17,-1
 192 512 l 1,18,-1
 192 448 l 1,19,-1
 0 448 l 1,16,-1
EndSplineSet
EndChar
StartChar: acute
Encoding: 180 180 117
Width: 512
VWidth: 2048
GlyphClass: 2
Flags: W
LayerCount: 2
Fore
SplineSet
0 512 m 1,0,-1
 0 640 l 1,1,-1
 128 640 l 1,2,-1
 128 512 l 1,3,-1
 0 512 l 1,0,-1
128 640 m 1,4,-1
 128 768 l 1,5,-1
 256 768 l 1,6,-1
 256 640 l 1,7,-1
 128 640 l 1,4,-1
256 768 m 1,8,-1
 256 896 l 1,9,-1
 384 896 l 1,10,-1
 384 768 l 1,11,-1
 256 768 l 1,8,-1
EndSplineSet
EndChar
StartChar: mu
Encoding: 181 181 118
Width: 384
GlyphClass: 2
Flags: W
LayerCount: 2
Fore
SplineSet
0 -128 m 1,0,-1
 0 320 l 1,1,-1
 128 320 l 1,2,-1
 128 64 l 1,3,-1
 192 64 l 1,4,-1
 192 320 l 1,5,-1
 320 320 l 1,6,-1
 320 64 l 1,7,-1
 256 64 l 1,8,-1
 256 0 l 1,9,-1
 128 0 l 1,10,-1
 128 -128 l 1,11,-1
 0 -128 l 1,0,-1
EndSplineSet
EndChar
StartChar: paragraph
Encoding: 182 182 119
Width: 448
GlyphClass: 2
Flags: W
LayerCount: 2
Fore
SplineSet
192 -64 m 1,0,-1
 192 128 l 1,1,-1
 64 128 l 1,2,-1
 64 192 l 1,3,-1
 0 192 l 1,4,-1
 0 320 l 1,5,-1
 64 320 l 1,6,-1
 64 384 l 1,7,-1
 384 384 l 1,8,-1
 384 -64 l 1,9,-1
 320 -64 l 1,10,-1
 320 320 l 1,11,-1
 256 320 l 1,12,-1
 256 -64 l 1,13,-1
 192 -64 l 1,0,-1
EndSplineSet
EndChar
StartChar: periodcentered
Encoding: 183 183 120
Width: 384
VWidth: 2048
GlyphClass: 2
Flags: W
LayerCount: 2
Fore
SplineSet
0 256 m 1,0,-1
 0 512 l 1,1,-1
 256 512 l 1,2,-1
 256 256 l 1,3,-1
 0 256 l 1,0,-1
EndSplineSet
EndChar
StartChar: cedilla
Encoding: 184 184 121
Width: 256
GlyphClass: 2
Flags: W
LayerCount: 2
Fore
SplineSet
0 -128 m 1,0,-1
 0 -64 l 1,1,-1
 128 -64 l 1,2,-1
 128 -128 l 1,3,-1
 0 -128 l 1,0,-1
128 -64 m 1,4,-1
 128 0 l 1,5,-1
 192 0 l 1,6,-1
 192 -64 l 1,7,-1
 128 -64 l 1,4,-1
64 0 m 1,8,-1
 64 64 l 1,9,-1
 128 64 l 1,10,-1
 128 0 l 1,11,-1
 64 0 l 1,8,-1
EndSplineSet
EndChar
StartChar: uni00B9
Encoding: 185 185 122
Width: 384
VWidth: 2048
GlyphClass: 2
Flags: W
LayerCount: 2
Fore
SplineSet
128 384 m 1,0,-1
 128 768 l 1,1,-1
 0 768 l 1,2,-1
 0 896 l 1,3,-1
 128 896 l 1,4,-1
 128 1024 l 1,5,-1
 256 1024 l 1,6,-1
 256 384 l 1,7,-1
 128 384 l 1,0,-1
EndSplineSet
EndChar
StartChar: ordmasculine
Encoding: 186 186 123
Width: 320
GlyphClass: 2
Flags: W
LayerCount: 2
Fore
SplineSet
64 192 m 1,0,-1
 64 256 l 1,1,-1
 192 256 l 1,2,-1
 192 192 l 1,3,-1
 64 192 l 1,0,-1
0 256 m 1,4,-1
 0 448 l 1,5,-1
 64 448 l 1,6,-1
 64 256 l 1,7,-1
 0 256 l 1,4,-1
192 256 m 1,8,-1
 192 448 l 1,9,-1
 256 448 l 1,10,-1
 256 256 l 1,11,-1
 192 256 l 1,8,-1
64 448 m 1,12,-1
 64 512 l 1,13,-1
 192 512 l 1,14,-1
 192 448 l 1,15,-1
 64 448 l 1,12,-1
EndSplineSet
EndChar
StartChar: guillemotright
Encoding: 187 187 124
Width: 448
GlyphClass: 2
Flags: W
LayerCount: 2
Fore
SplineSet
0 0 m 1,0,-1
 0 64 l 1,1,-1
 64 64 l 1,2,-1
 64 0 l 1,3,-1
 0 0 l 1,0,-1
192 0 m 1,4,-1
 192 64 l 1,5,-1
 256 64 l 1,6,-1
 256 0 l 1,7,-1
 192 0 l 1,4,-1
64 64 m 1,8,-1
 64 128 l 1,9,-1
 128 128 l 1,10,-1
 128 64 l 1,11,-1
 64 64 l 1,8,-1
256 64 m 1,12,-1
 256 128 l 1,13,-1
 320 128 l 1,14,-1
 320 64 l 1,15,-1
 256 64 l 1,12,-1
128 128 m 1,16,-1
 128 192 l 1,17,-1
 192 192 l 1,18,-1
 192 128 l 1,19,-1
 128 128 l 1,16,-1
320 128 m 1,20,-1
 320 192 l 1,21,-1
 384 192 l 1,22,-1
 384 128 l 1,23,-1
 320 128 l 1,20,-1
64 192 m 1,24,-1
 64 256 l 1,25,-1
 128 256 l 1,26,-1
 128 192 l 1,27,-1
 64 192 l 1,24,-1
256 192 m 1,28,-1
 256 256 l 1,29,-1
 320 256 l 1,30,-1
 320 192 l 1,31,-1
 256 192 l 1,28,-1
0 256 m 1,32,-1
 0 320 l 1,33,-1
 64 320 l 1,34,-1
 64 256 l 1,35,-1
 0 256 l 1,32,-1
192 256 m 1,36,-1
 192 320 l 1,37,-1
 256 320 l 1,38,-1
 256 256 l 1,39,-1
 192 256 l 1,36,-1
EndSplineSet
EndChar
StartChar: onequarter
Encoding: 188 188 125
Width: 1152
VWidth: 2048
GlyphClass: 2
Flags: W
LayerCount: 2
Fore
SplineSet
0 -128 m 1,0,-1
 0 0 l 1,1,-1
 128 0 l 1,2,-1
 128 -128 l 1,3,-1
 0 -128 l 1,0,-1
128 0 m 1,4,-1
 128 128 l 1,5,-1
 256 128 l 1,6,-1
 256 0 l 1,7,-1
 128 0 l 1,4,-1
256 128 m 1,8,-1
 256 256 l 1,9,-1
 384 256 l 1,10,-1
 384 128 l 1,11,-1
 256 128 l 1,8,-1
384 256 m 1,12,-1
 384 384 l 1,13,-1
 512 384 l 1,14,-1
 512 256 l 1,15,-1
 384 256 l 1,12,-1
768 -256 m 1,16,-1
 768 -128 l 1,17,-1
 512 -128 l 1,18,-1
 512 128 l 1,19,-1
 640 128 l 1,20,-1
 640 0 l 1,21,-1
 768 0 l 1,22,-1
 768 128 l 1,23,-1
 640 128 l 1,24,-1
 640 256 l 1,25,-1
 768 256 l 1,26,-1
 768 384 l 1,27,-1
 896 384 l 1,28,-1
 896 0 l 1,29,-1
 1024 0 l 1,30,-1
 1024 -128 l 1,31,-1
 896 -128 l 1,32,-1
 896 -256 l 1,33,-1
 768 -256 l 1,16,-1
512 384 m 1,34,-1
 512 512 l 1,35,-1
 640 512 l 1,36,-1
 640 384 l 1,37,-1
 512 384 l 1,34,-1
640 512 m 1,38,-1
 640 640 l 1,39,-1
 768 640 l 1,40,-1
 768 512 l 1,41,-1
 640 512 l 1,38,-1
768 640 m 1,42,-1
 768 768 l 1,43,-1
 896 768 l 1,44,-1
 896 640 l 1,45,-1
 768 640 l 1,42,-1
896 768 m 1,46,-1
 896 896 l 1,47,-1
 1024 896 l 1,48,-1
 1024 768 l 1,49,-1
 896 768 l 1,46,-1
128 384 m 1,50,-1
 128 768 l 1,51,-1
 0 768 l 1,52,-1
 0 896 l 1,53,-1
 128 896 l 1,54,-1
 128 1024 l 1,55,-1
 256 1024 l 1,56,-1
 256 384 l 1,57,-1
 128 384 l 1,50,-1
EndSplineSet
EndChar
StartChar: threequarters
Encoding: 190 190 127
Width: 1280
VWidth: 2048
GlyphClass: 2
Flags: W
LayerCount: 2
Fore
SplineSet
128 -128 m 1,0,-1
 128 0 l 1,1,-1
 256 0 l 1,2,-1
 256 -128 l 1,3,-1
 128 -128 l 1,0,-1
256 0 m 1,4,-1
 256 128 l 1,5,-1
 384 128 l 1,6,-1
 384 0 l 1,7,-1
 256 0 l 1,4,-1
384 128 m 1,8,-1
 384 256 l 1,9,-1
 512 256 l 1,10,-1
 512 128 l 1,11,-1
 384 128 l 1,8,-1
512 256 m 1,12,-1
 512 384 l 1,13,-1
 640 384 l 1,14,-1
 640 256 l 1,15,-1
 512 256 l 1,12,-1
896 -256 m 1,16,-1
 896 -128 l 1,17,-1
 640 -128 l 1,18,-1
 640 128 l 1,19,-1
 768 128 l 1,20,-1
 768 0 l 1,21,-1
 896 0 l 1,22,-1
 896 128 l 1,23,-1
 768 128 l 1,24,-1
 768 256 l 1,25,-1
 896 256 l 1,26,-1
 896 384 l 1,27,-1
 1024 384 l 1,28,-1
 1024 0 l 1,29,-1
 1152 0 l 1,30,-1
 1152 -128 l 1,31,-1
 1024 -128 l 1,32,-1
 1024 -256 l 1,33,-1
 896 -256 l 1,16,-1
0 384 m 1,34,-1
 0 512 l 1,35,-1
 384 512 l 1,36,-1
 384 384 l 1,37,-1
 0 384 l 1,34,-1
640 384 m 1,38,-1
 640 512 l 1,39,-1
 768 512 l 1,40,-1
 768 384 l 1,41,-1
 640 384 l 1,38,-1
384 512 m 1,42,-1
 384 640 l 1,43,-1
 512 640 l 1,44,-1
 512 512 l 1,45,-1
 384 512 l 1,42,-1
768 512 m 1,46,-1
 768 640 l 1,47,-1
 896 640 l 1,48,-1
 896 512 l 1,49,-1
 768 512 l 1,46,-1
128 640 m 1,50,-1
 128 768 l 1,51,-1
 384 768 l 1,52,-1
 384 640 l 1,53,-1
 128 640 l 1,50,-1
896 640 m 1,54,-1
 896 768 l 1,55,-1
 1024 768 l 1,56,-1
 1024 640 l 1,57,-1
 896 640 l 1,54,-1
384 768 m 1,58,-1
 384 896 l 1,59,-1
 512 896 l 1,60,-1
 512 768 l 1,61,-1
 384 768 l 1,58,-1
1024 768 m 1,62,-1
 1024 896 l 1,63,-1
 1152 896 l 1,64,-1
 1152 768 l 1,65,-1
 1024 768 l 1,62,-1
0 896 m 1,66,-1
 0 1024 l 1,67,-1
 384 1024 l 1,68,-1
 384 896 l 1,69,-1
 0 896 l 1,66,-1
EndSplineSet
EndChar
StartChar: questiondown
Encoding: 191 191 128
Width: 448
GlyphClass: 2
Flags: W
LayerCount: 2
Fore
SplineSet
64 -128 m 1,0,-1
 64 -64 l 1,1,-1
 0 -64 l 1,2,-1
 0 64 l 1,3,-1
 64 64 l 1,4,-1
 64 128 l 1,5,-1
 256 128 l 1,6,-1
 256 64 l 1,7,-1
 128 64 l 1,8,-1
 128 -64 l 1,9,-1
 256 -64 l 1,10,-1
 256 0 l 1,11,-1
 384 0 l 1,12,-1
 384 -64 l 1,13,-1
 320 -64 l 1,14,-1
 320 -128 l 1,15,-1
 64 -128 l 1,0,-1
128 192 m 1,16,-1
 128 256 l 1,17,-1
 256 256 l 1,18,-1
 256 192 l 1,19,-1
 128 192 l 1,16,-1
EndSplineSet
EndChar
StartChar: AE
Encoding: 198 198 135
Width: 1152
VWidth: 2048
GlyphClass: 2
Flags: W
LayerCount: 2
Fore
SplineSet
384 384 m 1,0,-1
 384 640 l 1,1,-1
 256 640 l 1,2,-1
 256 384 l 1,3,-1
 384 384 l 1,0,-1
0 0 m 1,4,-1
 0 640 l 1,5,-1
 128 640 l 1,6,-1
 128 768 l 1,7,-1
 1024 768 l 1,8,-1
 1024 640 l 1,9,-1
 640 640 l 1,10,-1
 640 512 l 1,11,-1
 896 512 l 1,12,-1
 896 384 l 1,13,-1
 640 384 l 1,14,-1
 640 128 l 1,15,-1
 1024 128 l 1,16,-1
 1024 0 l 1,17,-1
 384 0 l 1,18,-1
 384 256 l 1,19,-1
 256 256 l 1,20,-1
 256 0 l 1,21,-1
 0 0 l 1,4,-1
EndSplineSet
EndChar
StartChar: Ecircumflex
Encoding: 202 202 139
Width: 448
GlyphClass: 2
Flags: W
LayerCount: 2
Fore
SplineSet
0 0 m 1,0,-1
 0 384 l 1,1,-1
 64 384 l 1,2,-1
 64 448 l 1,3,-1
 128 448 l 1,4,-1
 128 384 l 1,5,-1
 256 384 l 1,6,-1
 256 448 l 1,7,-1
 320 448 l 1,8,-1
 320 384 l 1,9,-1
 384 384 l 1,10,-1
 384 320 l 1,11,-1
 128 320 l 1,12,-1
 128 256 l 1,13,-1
 320 256 l 1,14,-1
 320 192 l 1,15,-1
 128 192 l 1,16,-1
 128 64 l 1,17,-1
 384 64 l 1,18,-1
 384 0 l 1,19,-1
 0 0 l 1,0,-1
128 448 m 1,20,-1
 128 512 l 1,21,-1
 256 512 l 1,22,-1
 256 448 l 1,23,-1
 128 448 l 1,20,-1
EndSplineSet
EndChar
StartChar: Edieresis
Encoding: 203 203 140
Width: 896
VWidth: 2048
GlyphClass: 2
Flags: W
LayerCount: 2
Fore
SplineSet
0 0 m 1,0,-1
 0 768 l 1,1,-1
 768 768 l 1,2,-1
 768 640 l 1,3,-1
 256 640 l 1,4,-1
 256 512 l 1,5,-1
 640 512 l 1,6,-1
 640 384 l 1,7,-1
 256 384 l 1,8,-1
 256 128 l 1,9,-1
 768 128 l 1,10,-1
 768 0 l 1,11,-1
 0 0 l 1,0,-1
128 896 m 1,12,-1
 128 1024 l 1,13,-1
 256 1024 l 1,14,-1
 256 896 l 1,15,-1
 128 896 l 1,12,-1
512 896 m 1,16,-1
 512 1024 l 1,17,-1
 640 1024 l 1,18,-1
 640 896 l 1,19,-1
 512 896 l 1,16,-1
EndSplineSet
EndChar
StartChar: Igrave
Encoding: 204 204 141
Width: 320
GlyphClass: 2
Flags: W
LayerCount: 2
Fore
SplineSet
0 0 m 1,0,-1
 0 64 l 1,1,-1
 64 64 l 1,2,-1
 64 320 l 1,3,-1
 0 320 l 1,4,-1
 0 384 l 1,5,-1
 64 384 l 1,6,-1
 64 448 l 1,7,-1
 128 448 l 1,8,-1
 128 384 l 1,9,-1
 256 384 l 1,10,-1
 256 320 l 1,11,-1
 192 320 l 1,12,-1
 192 64 l 1,13,-1
 256 64 l 1,14,-1
 256 0 l 1,15,-1
 0 0 l 1,0,-1
0 448 m 1,16,-1
 0 512 l 1,17,-1
 64 512 l 1,18,-1
 64 448 l 1,19,-1
 0 448 l 1,16,-1
EndSplineSet
EndChar
StartChar: Icircumflex
Encoding: 206 206 143
Width: 640
VWidth: 2048
GlyphClass: 2
Flags: W
LayerCount: 2
Fore
SplineSet
0 0 m 1,0,-1
 0 128 l 1,1,-1
 128 128 l 1,2,-1
 128 640 l 1,3,-1
 0 640 l 1,4,-1
 0 896 l 1,5,-1
 128 896 l 1,6,-1
 128 768 l 1,7,-1
 384 768 l 1,8,-1
 384 896 l 1,9,-1
 512 896 l 1,10,-1
 512 640 l 1,11,-1
 384 640 l 1,12,-1
 384 128 l 1,13,-1
 512 128 l 1,14,-1
 512 0 l 1,15,-1
 0 0 l 1,0,-1
128 896 m 1,16,-1
 128 1024 l 1,17,-1
 384 1024 l 1,18,-1
 384 896 l 1,19,-1
 128 896 l 1,16,-1
EndSplineSet
EndChar
StartChar: Eth
Encoding: 208 208 145
Width: 1024
VWidth: 2048
GlyphClass: 2
Flags: W
LayerCount: 2
Fore
SplineSet
640 128 m 1,0,-1
 640 512 l 1,1,-1
 512 512 l 1,2,-1
 512 640 l 1,3,-1
 384 640 l 1,4,-1
 384 384 l 1,5,-1
 512 384 l 1,6,-1
 512 256 l 1,7,-1
 384 256 l 1,8,-1
 384 128 l 1,9,-1
 640 128 l 1,0,-1
128 0 m 1,10,-1
 128 256 l 1,11,-1
 0 256 l 1,12,-1
 0 384 l 1,13,-1
 128 384 l 1,14,-1
 128 768 l 1,15,-1
 640 768 l 1,16,-1
 640 640 l 1,17,-1
 768 640 l 1,18,-1
 768 512 l 1,19,-1
 896 512 l 1,20,-1
 896 128 l 1,21,-1
 768 128 l 1,22,-1
 768 0 l 1,23,-1
 128 0 l 1,10,-1
EndSplineSet
EndChar
StartChar: Ntilde
Encoding: 209 209 146
Width: 896
VWidth: 2048
GlyphClass: 2
Flags: W
LayerCount: 2
Fore
SplineSet
0 0 m 1,0,-1
 0 768 l 1,1,-1
 128 768 l 1,2,-1
 128 896 l 1,3,-1
 256 896 l 1,4,-1
 256 640 l 1,5,-1
 384 640 l 1,6,-1
 384 512 l 1,7,-1
 512 512 l 1,8,-1
 512 768 l 1,9,-1
 768 768 l 1,10,-1
 768 0 l 1,11,-1
 512 0 l 1,12,-1
 512 128 l 1,13,-1
 384 128 l 1,14,-1
 384 256 l 1,15,-1
 256 256 l 1,16,-1
 256 0 l 1,17,-1
 0 0 l 1,0,-1
384 768 m 1,18,-1
 384 896 l 1,19,-1
 512 896 l 1,20,-1
 512 768 l 1,21,-1
 384 768 l 1,18,-1
256 896 m 1,22,-1
 256 1024 l 1,23,-1
 384 1024 l 1,24,-1
 384 896 l 1,25,-1
 256 896 l 1,22,-1
512 896 m 1,26,-1
 512 1024 l 1,27,-1
 640 1024 l 1,28,-1
 640 896 l 1,29,-1
 512 896 l 1,26,-1
EndSplineSet
EndChar
StartChar: Oacute
Encoding: 211 211 148
Width: 448
GlyphClass: 2
Flags: W
LayerCount: 2
Fore
SplineSet
256 64 m 1,0,-1
 256 320 l 1,1,-1
 128 320 l 1,2,-1
 128 64 l 1,3,-1
 256 64 l 1,0,-1
64 0 m 1,4,-1
 64 64 l 1,5,-1
 0 64 l 1,6,-1
 0 320 l 1,7,-1
 64 320 l 1,8,-1
 64 384 l 1,9,-1
 192 384 l 1,10,-1
 192 448 l 1,11,-1
 256 448 l 1,12,-1
 256 384 l 1,13,-1
 320 384 l 1,14,-1
 320 320 l 1,15,-1
 384 320 l 1,16,-1
 384 64 l 1,17,-1
 320 64 l 1,18,-1
 320 0 l 1,19,-1
 64 0 l 1,4,-1
256 448 m 1,20,-1
 256 512 l 1,21,-1
 320 512 l 1,22,-1
 320 448 l 1,23,-1
 256 448 l 1,20,-1
EndSplineSet
EndChar
StartChar: Ocircumflex
Encoding: 212 212 149
Width: 448
GlyphClass: 2
Flags: W
LayerCount: 2
Fore
SplineSet
256 64 m 1,0,-1
 256 320 l 1,1,-1
 128 320 l 1,2,-1
 128 64 l 1,3,-1
 256 64 l 1,0,-1
64 0 m 1,4,-1
 64 64 l 1,5,-1
 0 64 l 1,6,-1
 0 320 l 1,7,-1
 64 320 l 1,8,-1
 64 448 l 1,9,-1
 128 448 l 1,10,-1
 128 384 l 1,11,-1
 256 384 l 1,12,-1
 256 448 l 1,13,-1
 320 448 l 1,14,-1
 320 320 l 1,15,-1
 384 320 l 1,16,-1
 384 64 l 1,17,-1
 320 64 l 1,18,-1
 320 0 l 1,19,-1
 64 0 l 1,4,-1
128 448 m 1,20,-1
 128 512 l 1,21,-1
 256 512 l 1,22,-1
 256 448 l 1,23,-1
 128 448 l 1,20,-1
EndSplineSet
EndChar
StartChar: Otilde
Encoding: 213 213 150
Width: 448
GlyphClass: 2
Flags: W
LayerCount: 2
Fore
SplineSet
256 64 m 1,0,-1
 256 320 l 1,1,-1
 128 320 l 1,2,-1
 128 64 l 1,3,-1
 256 64 l 1,0,-1
64 0 m 1,4,-1
 64 64 l 1,5,-1
 0 64 l 1,6,-1
 0 320 l 1,7,-1
 64 320 l 1,8,-1
 64 448 l 1,9,-1
 128 448 l 1,10,-1
 128 384 l 1,11,-1
 192 384 l 1,12,-1
 192 448 l 1,13,-1
 256 448 l 1,14,-1
 256 384 l 1,15,-1
 320 384 l 1,16,-1
 320 320 l 1,17,-1
 384 320 l 1,18,-1
 384 64 l 1,19,-1
 320 64 l 1,20,-1
 320 0 l 1,21,-1
 64 0 l 1,4,-1
128 448 m 1,22,-1
 128 512 l 1,23,-1
 192 512 l 1,24,-1
 192 448 l 1,25,-1
 128 448 l 1,22,-1
256 448 m 1,26,-1
 256 512 l 1,27,-1
 320 512 l 1,28,-1
 320 448 l 1,29,-1
 256 448 l 1,26,-1
EndSplineSet
EndChar
StartChar: Odieresis
Encoding: 214 214 151
Width: 896
VWidth: 2048
GlyphClass: 2
Flags: W
LayerCount: 2
Fore
SplineSet
512 128 m 1,0,-1
 512 640 l 1,1,-1
 256 640 l 1,2,-1
 256 128 l 1,3,-1
 512 128 l 1,0,-1
128 0 m 1,4,-1
 128 128 l 1,5,-1
 0 128 l 1,6,-1
 0 640 l 1,7,-1
 128 640 l 1,8,-1
 128 768 l 1,9,-1
 640 768 l 1,10,-1
 640 640 l 1,11,-1
 768 640 l 1,12,-1
 768 128 l 1,13,-1
 640 128 l 1,14,-1
 640 0 l 1,15,-1
 128 0 l 1,4,-1
128 896 m 1,16,-1
 128 1024 l 1,17,-1
 256 1024 l 1,18,-1
 256 896 l 1,19,-1
 128 896 l 1,16,-1
512 896 m 1,20,-1
 512 1024 l 1,21,-1
 640 1024 l 1,22,-1
 640 896 l 1,23,-1
 512 896 l 1,20,-1
EndSplineSet
EndChar
StartChar: Oslash
Encoding: 216 216 153
Width: 896
VWidth: 2048
GlyphClass: 2
Flags: W
LayerCount: 2
Fore
SplineSet
0 -128 m 1,0,-1
 0 0 l 1,1,-1
 128 0 l 1,2,-1
 128 -128 l 1,3,-1
 0 -128 l 1,0,-1
512 128 m 1,4,-1
 512 384 l 1,5,-1
 384 384 l 1,6,-1
 384 512 l 1,7,-1
 512 512 l 1,8,-1
 512 640 l 1,9,-1
 256 640 l 1,10,-1
 256 384 l 1,11,-1
 384 384 l 1,12,-1
 384 256 l 1,13,-1
 256 256 l 1,14,-1
 256 128 l 1,15,-1
 512 128 l 1,4,-1
128 0 m 1,16,-1
 128 128 l 1,17,-1
 0 128 l 1,18,-1
 0 640 l 1,19,-1
 128 640 l 1,20,-1
 128 768 l 1,21,-1
 640 768 l 1,22,-1
 640 640 l 1,23,-1
 768 640 l 1,24,-1
 768 128 l 1,25,-1
 640 128 l 1,26,-1
 640 0 l 1,27,-1
 128 0 l 1,16,-1
640 768 m 1,28,-1
 640 896 l 1,29,-1
 768 896 l 1,30,-1
 768 768 l 1,31,-1
 640 768 l 1,28,-1
EndSplineSet
EndChar
StartChar: Uacute
Encoding: 218 218 155
Width: 448
GlyphClass: 2
Flags: W
LayerCount: 2
Fore
SplineSet
64 0 m 1,0,-1
 64 64 l 1,1,-1
 0 64 l 1,2,-1
 0 384 l 1,3,-1
 128 384 l 1,4,-1
 128 64 l 1,5,-1
 256 64 l 1,6,-1
 256 384 l 1,7,-1
 384 384 l 1,8,-1
 384 64 l 1,9,-1
 320 64 l 1,10,-1
 320 0 l 1,11,-1
 64 0 l 1,0,-1
192 384 m 1,12,-1
 192 448 l 1,13,-1
 256 448 l 1,14,-1
 256 384 l 1,15,-1
 192 384 l 1,12,-1
256 448 m 1,16,-1
 256 512 l 1,17,-1
 320 512 l 1,18,-1
 320 448 l 1,19,-1
 256 448 l 1,16,-1
EndSplineSet
EndChar
StartChar: Thorn
Encoding: 222 222 159
Width: 896
VWidth: 2048
GlyphClass: 2
Flags: W
LayerCount: 2
Fore
SplineSet
512 384 m 1,0,-1
 512 640 l 1,1,-1
 256 640 l 1,2,-1
 256 384 l 1,3,-1
 512 384 l 1,0,-1
0 0 m 1,4,-1
 0 1024 l 1,5,-1
 256 1024 l 1,6,-1
 256 768 l 1,7,-1
 640 768 l 1,8,-1
 640 640 l 1,9,-1
 768 640 l 1,10,-1
 768 384 l 1,11,-1
 640 384 l 1,12,-1
 640 256 l 1,13,-1
 256 256 l 1,14,-1
 256 0 l 1,15,-1
 0 0 l 1,4,-1
EndSplineSet
EndChar
StartChar: germandbls
Encoding: 223 223 160
Width: 448
GlyphClass: 2
Flags: W
LayerCount: 2
Fore
SplineSet
0 0 m 1,0,-1
 0 320 l 1,1,-1
 64 320 l 1,2,-1
 64 384 l 1,3,-1
 320 384 l 1,4,-1
 320 320 l 1,5,-1
 384 320 l 1,6,-1
 384 256 l 1,7,-1
 320 256 l 1,8,-1
 320 128 l 1,9,-1
 384 128 l 1,10,-1
 384 64 l 1,11,-1
 320 64 l 1,12,-1
 320 0 l 1,13,-1
 192 0 l 1,14,-1
 192 64 l 1,15,-1
 256 64 l 1,16,-1
 256 128 l 1,17,-1
 192 128 l 1,18,-1
 192 256 l 1,19,-1
 256 256 l 1,20,-1
 256 320 l 1,21,-1
 128 320 l 1,22,-1
 128 0 l 1,23,-1
 0 0 l 1,0,-1
EndSplineSet
EndChar
StartChar: aring
Encoding: 229 229 166
Width: 384
GlyphClass: 2
Flags: W
LayerCount: 2
Fore
SplineSet
192 64 m 1,0,-1
 192 128 l 1,1,-1
 128 128 l 1,2,-1
 128 64 l 1,3,-1
 192 64 l 1,0,-1
192 320 m 1,4,-1
 192 384 l 1,5,-1
 128 384 l 1,6,-1
 128 320 l 1,7,-1
 192 320 l 1,4,-1
64 0 m 1,8,-1
 64 64 l 1,9,-1
 0 64 l 1,10,-1
 0 128 l 1,11,-1
 64 128 l 1,12,-1
 64 192 l 1,13,-1
 192 192 l 1,14,-1
 192 256 l 1,15,-1
 64 256 l 1,16,-1
 64 448 l 1,17,-1
 256 448 l 1,18,-1
 256 256 l 1,19,-1
 320 256 l 1,20,-1
 320 0 l 1,21,-1
 64 0 l 1,8,-1
EndSplineSet
EndChar
StartChar: ae
Encoding: 230 230 167
Width: 1152
VWidth: 2048
GlyphClass: 2
Flags: W
LayerCount: 2
Fore
SplineSet
384 128 m 1,0,-1
 384 256 l 1,1,-1
 256 256 l 1,2,-1
 256 128 l 1,3,-1
 384 128 l 1,0,-1
768 384 m 1,4,-1
 768 512 l 1,5,-1
 640 512 l 1,6,-1
 640 384 l 1,7,-1
 768 384 l 1,4,-1
128 0 m 1,8,-1
 128 128 l 1,9,-1
 0 128 l 1,10,-1
 0 256 l 1,11,-1
 128 256 l 1,12,-1
 128 384 l 1,13,-1
 384 384 l 1,14,-1
 384 512 l 1,15,-1
 128 512 l 1,16,-1
 128 640 l 1,17,-1
 896 640 l 1,18,-1
 896 512 l 1,19,-1
 1024 512 l 1,20,-1
 1024 256 l 1,21,-1
 640 256 l 1,22,-1
 640 128 l 1,23,-1
 1024 128 l 1,24,-1
 1024 0 l 1,25,-1
 128 0 l 1,8,-1
EndSplineSet
EndChar
StartChar: ccedilla
Encoding: 231 231 168
Width: 384
GlyphClass: 2
Flags: W
LayerCount: 2
Fore
SplineSet
0 -128 m 1,0,-1
 0 -64 l 1,1,-1
 128 -64 l 1,2,-1
 128 -128 l 1,3,-1
 0 -128 l 1,0,-1
128 -64 m 1,4,-1
 128 0 l 1,5,-1
 64 0 l 1,6,-1
 64 64 l 1,7,-1
 0 64 l 1,8,-1
 0 256 l 1,9,-1
 64 256 l 1,10,-1
 64 320 l 1,11,-1
 256 320 l 1,12,-1
 256 256 l 1,13,-1
 320 256 l 1,14,-1
 320 192 l 1,15,-1
 192 192 l 1,16,-1
 192 256 l 1,17,-1
 128 256 l 1,18,-1
 128 64 l 1,19,-1
 192 64 l 1,20,-1
 192 128 l 1,21,-1
 320 128 l 1,22,-1
 320 64 l 1,23,-1
 256 64 l 1,24,-1
 256 0 l 1,25,-1
 192 0 l 1,26,-1
 192 -64 l 1,27,-1
 128 -64 l 1,4,-1
EndSplineSet
EndChar
StartChar: edieresis
Encoding: 235 235 172
Width: 768
VWidth: 2048
GlyphClass: 2
Flags: W
LayerCount: 2
Fore
SplineSet
384 384 m 1,0,-1
 384 512 l 1,1,-1
 256 512 l 1,2,-1
 256 384 l 1,3,-1
 384 384 l 1,0,-1
128 0 m 1,4,-1
 128 128 l 1,5,-1
 0 128 l 1,6,-1
 0 512 l 1,7,-1
 128 512 l 1,8,-1
 128 640 l 1,9,-1
 512 640 l 1,10,-1
 512 512 l 1,11,-1
 640 512 l 1,12,-1
 640 256 l 1,13,-1
 256 256 l 1,14,-1
 256 128 l 1,15,-1
 640 128 l 1,16,-1
 640 0 l 1,17,-1
 128 0 l 1,4,-1
128 768 m 1,18,-1
 128 896 l 1,19,-1
 256 896 l 1,20,-1
 256 768 l 1,21,-1
 128 768 l 1,18,-1
384 768 m 1,22,-1
 384 896 l 1,23,-1
 512 896 l 1,24,-1
 512 768 l 1,25,-1
 384 768 l 1,22,-1
EndSplineSet
EndChar
StartChar: igrave
Encoding: 236 236 173
Width: 384
VWidth: 2048
GlyphClass: 2
Flags: W
LayerCount: 2
Fore
SplineSet
0 0 m 1,0,-1
 0 640 l 1,1,-1
 256 640 l 1,2,-1
 256 0 l 1,3,-1
 0 0 l 1,0,-1
128 768 m 1,4,-1
 128 896 l 1,5,-1
 256 896 l 1,6,-1
 256 768 l 1,7,-1
 128 768 l 1,4,-1
0 896 m 1,8,-1
 0 1024 l 1,9,-1
 128 1024 l 1,10,-1
 128 896 l 1,11,-1
 0 896 l 1,8,-1
EndSplineSet
EndChar
StartChar: iacute
Encoding: 237 237 174
Width: 192
GlyphClass: 2
Flags: W
LayerCount: 2
Fore
SplineSet
0 0 m 1,0,-1
 0 320 l 1,1,-1
 128 320 l 1,2,-1
 128 0 l 1,3,-1
 0 0 l 1,0,-1
0 384 m 1,4,-1
 0 448 l 1,5,-1
 64 448 l 1,6,-1
 64 384 l 1,7,-1
 0 384 l 1,4,-1
64 448 m 1,8,-1
 64 512 l 1,9,-1
 128 512 l 1,10,-1
 128 448 l 1,11,-1
 64 448 l 1,8,-1
EndSplineSet
EndChar
StartChar: icircumflex
Encoding: 238 238 175
Width: 640
VWidth: 2048
GlyphClass: 2
Flags: W
LayerCount: 2
Fore
SplineSet
128 0 m 1,0,-1
 128 640 l 1,1,-1
 384 640 l 1,2,-1
 384 0 l 1,3,-1
 128 0 l 1,0,-1
0 768 m 1,4,-1
 0 896 l 1,5,-1
 128 896 l 1,6,-1
 128 768 l 1,7,-1
 0 768 l 1,4,-1
384 768 m 1,8,-1
 384 896 l 1,9,-1
 512 896 l 1,10,-1
 512 768 l 1,11,-1
 384 768 l 1,8,-1
128 896 m 1,12,-1
 128 1024 l 1,13,-1
 384 1024 l 1,14,-1
 384 896 l 1,15,-1
 128 896 l 1,12,-1
EndSplineSet
EndChar
StartChar: idieresis
Encoding: 239 239 176
Width: 320
GlyphClass: 2
Flags: W
LayerCount: 2
Fore
SplineSet
64 0 m 1,0,-1
 64 320 l 1,1,-1
 192 320 l 1,2,-1
 192 0 l 1,3,-1
 64 0 l 1,0,-1
0 384 m 1,4,-1
 0 448 l 1,5,-1
 64 448 l 1,6,-1
 64 384 l 1,7,-1
 0 384 l 1,4,-1
192 384 m 1,8,-1
 192 448 l 1,9,-1
 256 448 l 1,10,-1
 256 384 l 1,11,-1
 192 384 l 1,8,-1
EndSplineSet
EndChar
StartChar: ntilde
Encoding: 241 241 178
Width: 384
GlyphClass: 2
Flags: W
LayerCount: 2
Fore
SplineSet
0 0 m 1,0,-1
 0 320 l 1,1,-1
 256 320 l 1,2,-1
 256 256 l 1,3,-1
 320 256 l 1,4,-1
 320 0 l 1,5,-1
 192 0 l 1,6,-1
 192 256 l 1,7,-1
 128 256 l 1,8,-1
 128 0 l 1,9,-1
 0 0 l 1,0,-1
0 384 m 1,10,-1
 0 448 l 1,11,-1
 64 448 l 1,12,-1
 64 384 l 1,13,-1
 0 384 l 1,10,-1
128 384 m 1,14,-1
 128 448 l 1,15,-1
 192 448 l 1,16,-1
 192 384 l 1,17,-1
 128 384 l 1,14,-1
64 448 m 1,18,-1
 64 512 l 1,19,-1
 128 512 l 1,20,-1
 128 448 l 1,21,-1
 64 448 l 1,18,-1
192 448 m 1,22,-1
 192 512 l 1,23,-1
 256 512 l 1,24,-1
 256 448 l 1,25,-1
 192 448 l 1,22,-1
EndSplineSet
EndChar
StartChar: oacute
Encoding: 243 243 180
Width: 384
GlyphClass: 2
Flags: W
LayerCount: 2
Fore
SplineSet
192 64 m 1,0,-1
 192 256 l 1,1,-1
 128 256 l 1,2,-1
 128 64 l 1,3,-1
 192 64 l 1,0,-1
64 0 m 1,4,-1
 64 64 l 1,5,-1
 0 64 l 1,6,-1
 0 256 l 1,7,-1
 64 256 l 1,8,-1
 64 320 l 1,9,-1
 256 320 l 1,10,-1
 256 256 l 1,11,-1
 320 256 l 1,12,-1
 320 64 l 1,13,-1
 256 64 l 1,14,-1
 256 0 l 1,15,-1
 64 0 l 1,4,-1
128 384 m 1,16,-1
 128 448 l 1,17,-1
 192 448 l 1,18,-1
 192 384 l 1,19,-1
 128 384 l 1,16,-1
192 448 m 1,20,-1
 192 512 l 1,21,-1
 256 512 l 1,22,-1
 256 448 l 1,23,-1
 192 448 l 1,20,-1
EndSplineSet
EndChar
StartChar: odieresis
Encoding: 246 246 183
Width: 384
GlyphClass: 2
Flags: W
LayerCount: 2
Fore
SplineSet
192 64 m 1,0,-1
 192 256 l 1,1,-1
 128 256 l 1,2,-1
 128 64 l 1,3,-1
 192 64 l 1,0,-1
64 0 m 1,4,-1
 64 64 l 1,5,-1
 0 64 l 1,6,-1
 0 256 l 1,7,-1
 64 256 l 1,8,-1
 64 320 l 1,9,-1
 256 320 l 1,10,-1
 256 256 l 1,11,-1
 320 256 l 1,12,-1
 320 64 l 1,13,-1
 256 64 l 1,14,-1
 256 0 l 1,15,-1
 64 0 l 1,4,-1
64 384 m 1,16,-1
 64 448 l 1,17,-1
 128 448 l 1,18,-1
 128 384 l 1,19,-1
 64 384 l 1,16,-1
192 384 m 1,20,-1
 192 448 l 1,21,-1
 256 448 l 1,22,-1
 256 384 l 1,23,-1
 192 384 l 1,20,-1
EndSplineSet
EndChar
StartChar: divide
Encoding: 247 247 184
Width: 384
GlyphClass: 2
Flags: W
LayerCount: 2
Fore
SplineSet
128 0 m 1,0,-1
 128 64 l 1,1,-1
 192 64 l 1,2,-1
 192 0 l 1,3,-1
 128 0 l 1,0,-1
0 128 m 1,4,-1
 0 192 l 1,5,-1
 320 192 l 1,6,-1
 320 128 l 1,7,-1
 0 128 l 1,4,-1
128 256 m 1,8,-1
 128 320 l 1,9,-1
 192 320 l 1,10,-1
 192 256 l 1,11,-1
 128 256 l 1,8,-1
EndSplineSet
EndChar
StartChar: oslash
Encoding: 248 248 185
Width: 384
GlyphClass: 2
Flags: W
LayerCount: 2
Fore
SplineSet
0 -64 m 1,0,-1
 0 0 l 1,1,-1
 64 0 l 1,2,-1
 64 -64 l 1,3,-1
 0 -64 l 1,0,-1
192 64 m 1,4,-1
 192 128 l 1,5,-1
 128 128 l 1,6,-1
 128 64 l 1,7,-1
 192 64 l 1,4,-1
192 192 m 1,8,-1
 192 256 l 1,9,-1
 128 256 l 1,10,-1
 128 192 l 1,11,-1
 192 192 l 1,8,-1
64 0 m 1,12,-1
 64 64 l 1,13,-1
 0 64 l 1,14,-1
 0 256 l 1,15,-1
 64 256 l 1,16,-1
 64 320 l 1,17,-1
 256 320 l 1,18,-1
 256 256 l 1,19,-1
 320 256 l 1,20,-1
 320 64 l 1,21,-1
 256 64 l 1,22,-1
 256 0 l 1,23,-1
 64 0 l 1,12,-1
256 320 m 1,24,-1
 256 384 l 1,25,-1
 320 384 l 1,26,-1
 320 320 l 1,27,-1
 256 320 l 1,24,-1
EndSplineSet
EndChar
StartChar: udieresis
Encoding: 252 252 189
Width: 384
GlyphClass: 2
Flags: W
LayerCount: 2
Fore
SplineSet
64 0 m 1,0,-1
 64 64 l 1,1,-1
 0 64 l 1,2,-1
 0 320 l 1,3,-1
 128 320 l 1,4,-1
 128 64 l 1,5,-1
 192 64 l 1,6,-1
 192 320 l 1,7,-1
 320 320 l 1,8,-1
 320 64 l 1,9,-1
 256 64 l 1,10,-1
 256 0 l 1,11,-1
 64 0 l 1,0,-1
64 384 m 1,12,-1
 64 448 l 1,13,-1
 128 448 l 1,14,-1
 128 384 l 1,15,-1
 64 384 l 1,12,-1
192 384 m 1,16,-1
 192 448 l 1,17,-1
 256 448 l 1,18,-1
 256 384 l 1,19,-1
 192 384 l 1,16,-1
EndSplineSet
EndChar
StartChar: yacute
Encoding: 253 253 190
Width: 768
VWidth: 2048
GlyphClass: 2
Flags: W
LayerCount: 2
Fore
SplineSet
0 -256 m 1,0,-1
 0 -128 l 1,1,-1
 384 -128 l 1,2,-1
 384 0 l 1,3,-1
 128 0 l 1,4,-1
 128 128 l 1,5,-1
 0 128 l 1,6,-1
 0 640 l 1,7,-1
 256 640 l 1,8,-1
 256 128 l 1,9,-1
 384 128 l 1,10,-1
 384 640 l 1,11,-1
 640 640 l 1,12,-1
 640 -128 l 1,13,-1
 512 -128 l 1,14,-1
 512 -256 l 1,15,-1
 0 -256 l 1,0,-1
256 768 m 1,16,-1
 256 896 l 1,17,-1
 384 896 l 1,18,-1
 384 768 l 1,19,-1
 256 768 l 1,16,-1
128 896 m 1,20,-1
 128 1024 l 1,21,-1
 256 1024 l 1,22,-1
 256 896 l 1,23,-1
 128 896 l 1,20,-1
EndSplineSet
EndChar
StartChar: thorn
Encoding: 254 254 191
Width: 768
VWidth: 2048
GlyphClass: 2
Flags: W
LayerCount: 2
Fore
SplineSet
384 128 m 1,0,-1
 384 512 l 1,1,-1
 256 512 l 1,2,-1
 256 128 l 1,3,-1
 384 128 l 1,0,-1
0 -256 m 1,4,-1
 0 896 l 1,5,-1
 256 896 l 1,6,-1
 256 640 l 1,7,-1
 512 640 l 1,8,-1
 512 512 l 1,9,-1
 640 512 l 1,10,-1
 640 128 l 1,11,-1
 512 128 l 1,12,-1
 512 0 l 1,13,-1
 256 0 l 1,14,-1
 256 -256 l 1,15,-1
 0 -256 l 1,4,-1
EndSplineSet
EndChar
StartChar: Ydieresis
Encoding: 376 376 193
Width: 896
VWidth: 2048
GlyphClass: 2
Flags: W
LayerCount: 2
Fore
SplineSet
256 0 m 1,0,-1
 256 256 l 1,1,-1
 128 256 l 1,2,-1
 128 384 l 1,3,-1
 0 384 l 1,4,-1
 0 768 l 1,5,-1
 256 768 l 1,6,-1
 256 384 l 1,7,-1
 512 384 l 1,8,-1
 512 768 l 1,9,-1
 768 768 l 1,10,-1
 768 384 l 1,11,-1
 640 384 l 1,12,-1
 640 256 l 1,13,-1
 512 256 l 1,14,-1
 512 0 l 1,15,-1
 256 0 l 1,0,-1
128 896 m 1,16,-1
 128 1024 l 1,17,-1
 256 1024 l 1,18,-1
 256 896 l 1,19,-1
 128 896 l 1,16,-1
512 896 m 1,20,-1
 512 1024 l 1,21,-1
 640 1024 l 1,22,-1
 640 896 l 1,23,-1
 512 896 l 1,20,-1
EndSplineSet
EndChar
StartChar: uni1E9E
Encoding: 7838 7838 194
Width: 512
GlyphClass: 2
Flags: W
LayerCount: 2
Fore
SplineSet
0 0 m 1,0,-1
 0 320 l 1,1,-1
 64 320 l 1,2,-1
 64 384 l 1,3,-1
 320 384 l 1,4,-1
 320 320 l 1,5,-1
 384 320 l 1,6,-1
 384 256 l 1,7,-1
 320 256 l 1,8,-1
 320 192 l 1,9,-1
 384 192 l 1,10,-1
 384 128 l 1,11,-1
 448 128 l 1,12,-1
 448 64 l 1,13,-1
 384 64 l 1,14,-1
 384 0 l 1,15,-1
 192 0 l 1,16,-1
 192 64 l 1,17,-1
 320 64 l 1,18,-1
 320 128 l 1,19,-1
 256 128 l 1,20,-1
 256 192 l 1,21,-1
 192 192 l 1,22,-1
 192 256 l 1,23,-1
 256 256 l 1,24,-1
 256 320 l 1,25,-1
 128 320 l 1,26,-1
 128 0 l 1,27,-1
 0 0 l 1,0,-1
EndSplineSet
EndChar
StartChar: emdash
Encoding: 8212 8212 195
Width: 1024
VWidth: 2048
GlyphClass: 2
Flags: W
LayerCount: 2
Fore
SplineSet
0 256 m 1,0,-1
 0 384 l 1,1,-1
 896 384 l 1,2,-1
 896 256 l 1,3,-1
 0 256 l 1,0,-1
EndSplineSet
EndChar
StartChar: quoteleft
Encoding: 8216 8216 196
Width: 512
VWidth: 2048
GlyphClass: 2
Flags: W
LayerCount: 2
Fore
SplineSet
0 512 m 1,0,-1
 0 768 l 1,1,-1
 128 768 l 1,2,-1
 128 896 l 1,3,-1
 384 896 l 1,4,-1
 384 768 l 1,5,-1
 256 768 l 1,6,-1
 256 512 l 1,7,-1
 0 512 l 1,0,-1
EndSplineSet
EndChar
StartChar: quoteright
Encoding: 8217 8217 197
Width: 512
VWidth: 2048
GlyphClass: 2
Flags: W
LayerCount: 2
Fore
SplineSet
0 512 m 1,0,-1
 0 640 l 1,1,-1
 128 640 l 1,2,-1
 128 896 l 1,3,-1
 384 896 l 1,4,-1
 384 640 l 1,5,-1
 256 640 l 1,6,-1
 256 512 l 1,7,-1
 0 512 l 1,0,-1
EndSplineSet
EndChar
StartChar: quotesinglbase
Encoding: 8218 8218 198
Width: 192
GlyphClass: 2
Flags: W
LayerCount: 2
Fore
SplineSet
-64 -128 m 1,0,-1
 -64 -64 l 1,1,-1
 0 -64 l 1,2,-1
 0 64 l 1,3,-1
 128 64 l 1,4,-1
 128 -64 l 1,5,-1
 64 -64 l 1,6,-1
 64 -128 l 1,7,-1
 -64 -128 l 1,0,-1
EndSplineSet
EndChar
StartChar: quotereversed
Encoding: 8219 8219 199
Width: 256
GlyphClass: 2
Flags: W
LayerCount: 2
Fore
SplineSet
64 256 m 1,0,-1
 64 320 l 1,1,-1
 0 320 l 1,2,-1
 0 448 l 1,3,-1
 128 448 l 1,4,-1
 128 320 l 1,5,-1
 192 320 l 1,6,-1
 192 256 l 1,7,-1
 64 256 l 1,0,-1
EndSplineSet
EndChar
StartChar: quotedblleft
Encoding: 8220 8220 200
Width: 896
VWidth: 2048
GlyphClass: 2
Flags: W
LayerCount: 2
Fore
SplineSet
0 512 m 1,0,-1
 0 768 l 1,1,-1
 128 768 l 1,2,-1
 128 896 l 1,3,-1
 384 896 l 1,4,-1
 384 768 l 1,5,-1
 256 768 l 1,6,-1
 256 512 l 1,7,-1
 0 512 l 1,0,-1
384 512 m 1,8,-1
 384 768 l 1,9,-1
 512 768 l 1,10,-1
 512 896 l 1,11,-1
 768 896 l 1,12,-1
 768 768 l 1,13,-1
 640 768 l 1,14,-1
 640 512 l 1,15,-1
 384 512 l 1,8,-1
EndSplineSet
EndChar
StartChar: quotedblright
Encoding: 8221 8221 201
Width: 896
VWidth: 2048
GlyphClass: 2
Flags: W
LayerCount: 2
Fore
SplineSet
0 512 m 1,0,-1
 0 640 l 1,1,-1
 128 640 l 1,2,-1
 128 896 l 1,3,-1
 384 896 l 1,4,-1
 384 640 l 1,5,-1
 256 640 l 1,6,-1
 256 512 l 1,7,-1
 0 512 l 1,0,-1
384 512 m 1,8,-1
 384 640 l 1,9,-1
 512 640 l 1,10,-1
 512 896 l 1,11,-1
 768 896 l 1,12,-1
 768 640 l 1,13,-1
 640 640 l 1,14,-1
 640 512 l 1,15,-1
 384 512 l 1,8,-1
EndSplineSet
EndChar
StartChar: quotedblbase
Encoding: 8222 8222 202
Width: 384
GlyphClass: 2
Flags: W
LayerCount: 2
Fore
SplineSet
-64 -128 m 1,0,-1
 -64 -64 l 1,1,-1
 0 -64 l 1,2,-1
 0 64 l 1,3,-1
 128 64 l 1,4,-1
 128 -64 l 1,5,-1
 64 -64 l 1,6,-1
 64 -128 l 1,7,-1
 -64 -128 l 1,0,-1
128 -128 m 1,8,-1
 128 -64 l 1,9,-1
 192 -64 l 1,10,-1
 192 64 l 1,11,-1
 320 64 l 1,12,-1
 320 -64 l 1,13,-1
 256 -64 l 1,14,-1
 256 -128 l 1,15,-1
 128 -128 l 1,8,-1
EndSplineSet
EndChar
StartChar: dagger
Encoding: 8224 8224 203
Width: 896
VWidth: 2048
GlyphClass: 2
Flags: W
LayerCount: 2
Fore
SplineSet
256 -256 m 1,0,-1
 256 384 l 1,1,-1
 0 384 l 1,2,-1
 0 512 l 1,3,-1
 256 512 l 1,4,-1
 256 768 l 1,5,-1
 512 768 l 1,6,-1
 512 512 l 1,7,-1
 768 512 l 1,8,-1
 768 384 l 1,9,-1
 512 384 l 1,10,-1
 512 -256 l 1,11,-1
 256 -256 l 1,0,-1
EndSplineSet
EndChar
StartChar: bullet
Encoding: 8226 8226 204
Width: 512
VWidth: 2048
GlyphClass: 2
Flags: W
LayerCount: 2
Fore
SplineSet
128 128 m 1,0,-1
 128 256 l 1,1,-1
 0 256 l 1,2,-1
 0 512 l 1,3,-1
 128 512 l 1,4,-1
 128 640 l 1,5,-1
 256 640 l 1,6,-1
 256 512 l 1,7,-1
 384 512 l 1,8,-1
 384 256 l 1,9,-1
 256 256 l 1,10,-1
 256 128 l 1,11,-1
 128 128 l 1,0,-1
EndSplineSet
EndChar
StartChar: ellipsis
Encoding: 8230 8230 205
Width: 768
VWidth: 2048
GlyphClass: 2
Flags: W
LayerCount: 2
Fore
SplineSet
0 0 m 1,0,-1
 0 128 l 1,1,-1
 128 128 l 1,2,-1
 128 0 l 1,3,-1
 0 0 l 1,0,-1
256 0 m 1,4,-1
 256 128 l 1,5,-1
 384 128 l 1,6,-1
 384 0 l 1,7,-1
 256 0 l 1,4,-1
512 0 m 1,8,-1
 512 128 l 1,9,-1
 640 128 l 1,10,-1
 640 0 l 1,11,-1
 512 0 l 1,8,-1
EndSplineSet
EndChar
StartChar: guilsinglleft
Encoding: 8249 8249 206
Width: 512
VWidth: 2048
GlyphClass: 2
Flags: W
LayerCount: 2
Fore
SplineSet
256 0 m 1,0,-1
 256 128 l 1,1,-1
 384 128 l 1,2,-1
 384 0 l 1,3,-1
 256 0 l 1,0,-1
128 128 m 1,4,-1
 128 256 l 1,5,-1
 256 256 l 1,6,-1
 256 128 l 1,7,-1
 128 128 l 1,4,-1
0 256 m 1,8,-1
 0 384 l 1,9,-1
 128 384 l 1,10,-1
 128 256 l 1,11,-1
 0 256 l 1,8,-1
128 384 m 1,12,-1
 128 512 l 1,13,-1
 256 512 l 1,14,-1
 256 384 l 1,15,-1
 128 384 l 1,12,-1
256 512 m 1,16,-1
 256 640 l 1,17,-1
 384 640 l 1,18,-1
 384 512 l 1,19,-1
 256 512 l 1,16,-1
EndSplineSet
EndChar
StartChar: Euro
Encoding: 8364 8364 208
Width: 512
GlyphClass: 2
Flags: W
LayerCount: 2
Fore
SplineSet
128 0 m 1,0,-1
 128 64 l 1,1,-1
 64 64 l 1,2,-1
 64 128 l 1,3,-1
 0 128 l 1,4,-1
 0 192 l 1,5,-1
 64 192 l 1,6,-1
 64 256 l 1,7,-1
 0 256 l 1,8,-1
 0 320 l 1,9,-1
 64 320 l 1,10,-1
 64 384 l 1,11,-1
 128 384 l 1,12,-1
 128 448 l 1,13,-1
 384 448 l 1,14,-1
 384 384 l 1,15,-1
 448 384 l 1,16,-1
 448 320 l 1,17,-1
 320 320 l 1,18,-1
 320 384 l 1,19,-1
 192 384 l 1,20,-1
 192 320 l 1,21,-1
 256 320 l 1,22,-1
 256 256 l 1,23,-1
 192 256 l 1,24,-1
 192 192 l 1,25,-1
 256 192 l 1,26,-1
 256 128 l 1,27,-1
 192 128 l 1,28,-1
 192 64 l 1,29,-1
 320 64 l 1,30,-1
 320 128 l 1,31,-1
 448 128 l 1,32,-1
 448 64 l 1,33,-1
 384 64 l 1,34,-1
 384 0 l 1,35,-1
 128 0 l 1,0,-1
EndSplineSet
EndChar
StartChar: trademark
Encoding: 8482 8482 209
Width: 512
GlyphClass: 2
Flags: W
LayerCount: 2
Fore
SplineSet
64 256 m 1,0,-1
 64 384 l 1,1,-1
 0 384 l 1,2,-1
 0 448 l 1,3,-1
 192 448 l 1,4,-1
 192 384 l 1,5,-1
 128 384 l 1,6,-1
 128 256 l 1,7,-1
 64 256 l 1,0,-1
256 256 m 1,8,-1
 256 448 l 1,9,-1
 448 448 l 1,10,-1
 448 256 l 1,11,-1
 384 256 l 1,12,-1
 384 320 l 1,13,-1
 320 320 l 1,14,-1
 320 256 l 1,15,-1
 256 256 l 1,8,-1
EndSplineSet
EndChar
StartChar: uniFB00
Encoding: 64256 64256 210
Width: 1280
VWidth: 2048
GlyphClass: 2
Flags: W
LayerCount: 2
Fore
SplineSet
128 0 m 1,0,-1
 128 384 l 1,1,-1
 0 384 l 1,2,-1
 0 512 l 1,3,-1
 128 512 l 1,4,-1
 128 768 l 1,5,-1
 256 768 l 1,6,-1
 256 896 l 1,7,-1
 640 896 l 1,8,-1
 640 768 l 1,9,-1
 384 768 l 1,10,-1
 384 512 l 1,11,-1
 640 512 l 1,12,-1
 640 768 l 1,13,-1
 768 768 l 1,14,-1
 768 896 l 1,15,-1
 1152 896 l 1,16,-1
 1152 768 l 1,17,-1
 896 768 l 1,18,-1
 896 512 l 1,19,-1
 1152 512 l 1,20,-1
 1152 384 l 1,21,-1
 896 384 l 1,22,-1
 896 0 l 1,23,-1
 640 0 l 1,24,-1
 640 384 l 1,25,-1
 384 384 l 1,26,-1
 384 0 l 1,27,-1
 128 0 l 1,0,-1
EndSplineSet
EndChar
StartChar: uniFB01
Encoding: 64257 64257 211
Width: 1024
VWidth: 2048
GlyphClass: 2
Flags: W
LayerCount: 2
Fore
SplineSet
640 640 m 1,0,-1
 640 768 l 1,1,-1
 896 768 l 1,2,-1
 896 640 l 1,3,-1
 640 640 l 1,0,-1
128 0 m 1,4,-1
 128 384 l 1,5,-1
 0 384 l 1,6,-1
 0 512 l 1,7,-1
 128 512 l 1,8,-1
 128 768 l 1,9,-1
 256 768 l 1,10,-1
 256 896 l 1,11,-1
 640 896 l 1,12,-1
 640 768 l 1,13,-1
 384 768 l 1,14,-1
 384 512 l 1,15,-1
 896 512 l 1,16,-1
 896 0 l 1,17,-1
 640 0 l 1,18,-1
 640 384 l 1,19,-1
 384 384 l 1,20,-1
 384 0 l 1,21,-1
 128 0 l 1,4,-1
EndSplineSet
EndChar
StartChar: uniFB02
Encoding: 64258 64258 212
Width: 512
GlyphClass: 2
Flags: W
LayerCount: 2
Fore
SplineSet
320 256 m 1,0,-1
 320 384 l 1,1,-1
 192 384 l 1,2,-1
 192 256 l 1,3,-1
 320 256 l 1,0,-1
64 0 m 1,4,-1
 64 192 l 1,5,-1
 0 192 l 1,6,-1
 0 256 l 1,7,-1
 64 256 l 1,8,-1
 64 384 l 1,9,-1
 128 384 l 1,10,-1
 128 448 l 1,11,-1
 448 448 l 1,12,-1
 448 0 l 1,13,-1
 320 0 l 1,14,-1
 320 192 l 1,15,-1
 192 192 l 1,16,-1
 192 0 l 1,17,-1
 64 0 l 1,4,-1
EndSplineSet
EndChar
StartChar: uniFB04
Encoding: 64260 64260 214
Width: 768
GlyphClass: 2
Flags: W
LayerCount: 2
Fore
SplineSet
576 256 m 1,0,-1
 576 384 l 1,1,-1
 448 384 l 1,2,-1
 448 256 l 1,3,-1
 576 256 l 1,0,-1
64 0 m 1,4,-1
 64 192 l 1,5,-1
 0 192 l 1,6,-1
 0 256 l 1,7,-1
 64 256 l 1,8,-1
 64 384 l 1,9,-1
 128 384 l 1,10,-1
 128 448 l 1,11,-1
 320 448 l 1,12,-1
 320 384 l 1,13,-1
 192 384 l 1,14,-1
 192 256 l 1,15,-1
 320 256 l 1,16,-1
 320 384 l 1,17,-1
 384 384 l 1,18,-1
 384 448 l 1,19,-1
 704 448 l 1,20,-1
 704 0 l 1,21,-1
 576 0 l 1,22,-1
 576 192 l 1,23,-1
 448 192 l 1,24,-1
 448 0 l 1,25,-1
 320 0 l 1,26,-1
 320 192 l 1,27,-1
 192 192 l 1,28,-1
 192 0 l 1,29,-1
 64 0 l 1,4,-1
EndSplineSet
EndChar
StartChar: uniFB06
Encoding: 64262 64262 215
Width: 640
GlyphClass: 2
Flags: W
LayerCount: 2
Fore
SplineSet
0 0 m 1,0,-1
 0 64 l 1,1,-1
 128 64 l 1,2,-1
 128 128 l 1,3,-1
 64 128 l 1,4,-1
 64 192 l 1,5,-1
 0 192 l 1,6,-1
 0 256 l 1,7,-1
 64 256 l 1,8,-1
 64 320 l 1,9,-1
 192 320 l 1,10,-1
 192 384 l 1,11,-1
 256 384 l 1,12,-1
 256 256 l 1,13,-1
 128 256 l 1,14,-1
 128 192 l 1,15,-1
 192 192 l 1,16,-1
 192 128 l 1,17,-1
 256 128 l 1,18,-1
 256 64 l 1,19,-1
 192 64 l 1,20,-1
 192 0 l 1,21,-1
 0 0 l 1,0,-1
384 0 m 1,22,-1
 384 64 l 1,23,-1
 320 64 l 1,24,-1
 320 384 l 1,25,-1
 256 384 l 1,26,-1
 256 448 l 1,27,-1
 448 448 l 1,28,-1
 448 320 l 1,29,-1
 576 320 l 1,30,-1
 576 256 l 1,31,-1
 448 256 l 1,32,-1
 448 64 l 1,33,-1
 576 64 l 1,34,-1
 576 0 l 1,35,-1
 384 0 l 1,22,-1
EndSplineSet
EndChar
